<svg width="325" height="728" fill="none" xmlns="http://www.w3.org/2000/svg"><path opacity=".5" d="M43.505.5C30.983 11.684 23.786 21.037 17.605 37m59.9 171c24.87 3.04 49.644-2.347 73.495-10.842M304.505 162c37.368 32.8 21.294 96.975-48.505 131.829M1 456c.76 11.695 3.503 21.372 7.757 29.5M122.501 727c27-44.5 58.5-132.5 16.5-168.5C120.021 542.232 91.5 538 62.5 529.817M151 324.208c-19.3 5.007-36.538 10.042-51.829 15.292" stroke="url(#paint0_linear)" stroke-linecap="round" stroke-linejoin="round" stroke-dasharray="5 5"/><defs><linearGradient id="paint0_linear" x1="162" y1="349" x2="135" y2="685.5" gradientUnits="userSpaceOnUse"><stop stop-color="#FF006B"/><stop offset="1" stop-color="#D53C7C" stop-opacity="0"/></linearGradient></defs></svg>