<svg width="1293" height="482" fill="none" xmlns="http://www.w3.org/2000/svg"><circle cx="182" cy="440" r="41.5" stroke="#3F3557"/><ellipse cx="905.5" cy="16" rx="16.5" ry="16" fill="#FF006B" fill-opacity=".12"/><circle cx="1058.5" cy="378.5" r="35.5" fill="#112E71" fill-opacity=".25"/><path opacity=".5" d="M1 330.154c42.376-45.459 147.644-134.81 229.714-128.544M1292 173.189c-18.97 41.926-137.04 171.892-239.56 163.415-60.007-4.962-103.721-38.308-141.922-75.727m-449.604 17.748c14.739-1.096 30.597-4.295 47.911-10.209a357.76 357.76 0 0 0 20.947-7.903m161.283-94.797c31.914-17.15 61.967-25.212 94.858-12.482 12.101 4.683 23.573 11.566 34.725 19.955" stroke="url(#paint0_linear)" stroke-dasharray="5 5"/><defs><linearGradient id="paint0_linear" x1="746.378" y1="52.795" x2="556.159" y2="285.682" gradientUnits="userSpaceOnUse"><stop stop-color="#FF006B"/><stop offset="1" stop-color="#D53C7C"/></linearGradient></defs></svg>