<svg width="2560" height="540" fill="none" xmlns="http://www.w3.org/2000/svg"><circle cx="762" cy="493" r="46.5" stroke="#3F3557"/><circle cx="1572" cy="18" r="18" fill="#FF006B" fill-opacity=".12"/><circle cx="1743" cy="424" r="40" fill="#112E71" fill-opacity=".25"/><path d="M-1 387.5c8-13 315.72-267.163 574-208a1035.282 1035.282 0 0 1 40.5 10.157M2560 150c-85 72.5-300.4 217.5-482 217.5-57.3 0-111.54-16.312-163.5-40.702M954 295.489c30.287 3.396 59.72 2.244 89-5.489 19.52-5.155 38.28-11.672 56.5-19.147M1374 131.962c36.76-12.573 75.86-20.462 119-20.462 43.11 0 86.22 14.849 130 37.394" stroke="url(#paint0_linear)" stroke-linecap="round" stroke-linejoin="round" stroke-dasharray="5 5"/><defs><linearGradient id="paint0_linear" x1="2560" y1="156.499" x2="-.793" y2="179.521" gradientUnits="userSpaceOnUse"><stop offset=".028" stop-color="#FF006B" stop-opacity="0"/><stop offset=".133" stop-color="#FF006B"/><stop offset=".479" stop-color="#FF006B"/><stop offset=".818" stop-color="#EA1D73"/><stop offset=".981" stop-color="#D53C7C" stop-opacity="0"/></linearGradient></defs></svg>