<svg width="1123" height="392" fill="none" xmlns="http://www.w3.org/2000/svg"><circle cx="149" cy="358" r="33.5" stroke="#3F3557"/><ellipse cx="737.5" cy="13" rx="13.5" ry="13" fill="#FF006B" fill-opacity=".12"/><circle cx="862" cy="308" r="29" fill="#112E71" fill-opacity=".25"/><path opacity=".5" d="M1 287.937c36.795-46.894 128.202-139.066 199.465-132.602M1122 126.016c-16.47 43.25-119 177.321-208.018 168.575-52.102-5.118-90.06-39.517-123.23-78.118m-390.4 18.308c12.798-1.13 26.568-4.43 41.602-10.531a282.363 282.363 0 0 0 18.189-8.152m140.045-97.791c27.712-17.692 53.807-26.008 82.367-12.876 10.508 4.831 20.469 11.931 30.152 20.585" stroke="url(#paint0_linear)" stroke-dasharray="5 5"/><defs><linearGradient id="paint0_linear" x1="648.226" y1="1.82" x2="448.058" y2="208.102" gradientUnits="userSpaceOnUse"><stop stop-color="#FF006B"/><stop offset="1" stop-color="#D53C7C"/></linearGradient></defs></svg>