<svg width="1755" height="540" fill="none" xmlns="http://www.w3.org/2000/svg"><circle cx="350" cy="493" r="46.5" stroke="#3F3557"/><circle cx="1160" cy="18" r="18" fill="#FF006B" fill-opacity=".12"/><circle cx="1331" cy="424" r="40" fill="#112E71" fill-opacity=".25"/><path opacity=".5" d="M1 341.315c57.54-49.47 200.48-146.705 311.92-139.886M1754 170.5c-25.76 45.626-186.09 187.06-325.29 177.834-81.48-5.399-140.84-41.687-192.71-82.409m-610.5 19.314c20.013-1.192 41.547-4.673 65.056-11.109A567.91 567.91 0 0 0 719 265.529m219-103.161c43.335-18.664 84.14-27.437 128.8-13.584 16.44 5.096 32.01 12.587 47.15 21.716" stroke="url(#paint0_linear)" stroke-dasharray="5 5"/><defs><linearGradient id="paint0_linear" x1="1754" y1="348.999" x2="9.788" y2="225.191" gradientUnits="userSpaceOnUse"><stop stop-color="#FF006B" stop-opacity="0"/><stop offset=".106" stop-color="#F70B6E"/><stop offset=".469" stop-color="#EB1C73"/><stop offset=".883" stop-color="#DC3179"/><stop offset="1" stop-color="#D53C7C" stop-opacity="0"/></linearGradient></defs></svg>