<svg width="2560" height="317" fill="none" xmlns="http://www.w3.org/2000/svg"><path opacity=".4" d="M228.814 7.344h1.523V5.822h-1.523v1.522zm0 250.656v1.522h1.523V258h-1.523zm-84.507 0h-1.522v1.522h1.522V258zm0-92.385h1.523v-1.522h-1.523v1.522zm-78.061 0v-1.522h-1.522v1.522h1.522zm0 92.385v1.522h1.522V258h-1.522zm-84.507 0h-1.522v1.522h1.522V258zm0-250.656V5.822h-1.522v1.522h1.522zm84.507 0h1.522V5.822h-1.522v1.522zm0 88.804h-1.522v1.522h1.522v-1.522zm78.061 0v1.522h1.523v-1.522h-1.523zm0-88.804V5.822h-1.522v1.522h1.522zm82.985 0V258h3.045V7.344h-3.045zm1.522 249.134h-84.507v3.044h84.507v-3.044zM145.83 258v-92.385h-3.045V258h3.045zm-1.523-93.907H66.246v3.045h78.061v-3.045zm-79.583 1.522V258h3.044v-92.385h-3.044zm1.522 90.863h-84.507v3.044h84.507v-3.044zM-16.74 258V7.344h-3.044V258h3.044zM-18.26 8.866h84.507V5.822h-84.507v3.044zm82.985-1.522v88.804h3.044V7.344h-3.044zm1.522 90.326h78.061v-3.044H66.246v3.044zm79.584-1.522V7.344h-3.045v88.804h3.045zm-1.523-87.282h84.507V5.822h-84.507v3.044zm333.627 185.396h1.523v-1.523h-1.523v1.523zm0 63.738v1.522h1.523V258h-1.523zm-208.402 0h-1.522v1.522h1.522V258zm0-250.656V5.822h-1.522v1.522h1.522zm203.747 0h1.523V5.822h-1.523v1.522zm0 63.738v1.523h1.523v-1.523h-1.523zm-120.673 0V69.56h-1.522v1.522h1.522zm0 29.363h-1.522v1.522h1.522v-1.522zm105.992 0h1.522v-1.522h-1.522v1.522zm0 60.873v1.523h1.522v-1.523h-1.522zm-105.992 0v-1.522h-1.522v1.522h1.522zm0 32.944h-1.522v1.522h1.522v-1.522zm123.806 0V258h3.045v-63.738h-3.045zm1.522 62.216H269.532v3.044h208.402v-3.044zM271.054 258V7.344h-3.044V258h3.044zM269.532 8.866h203.747V5.822H269.532v3.044zm202.225-1.522v63.738h3.045V7.344h-3.045zm1.522 62.216H352.606v3.045h120.673V69.56zm-122.195 1.522v29.363h3.045V71.082h-3.045zm1.522 30.885h105.992v-3.044H352.606v3.044zm104.47-1.522v60.873h3.044v-60.873h-3.044zm1.522 59.351H352.606v3.045h105.992v-3.045zm-107.514 1.522v32.944h3.045v-32.944h-3.045zm1.522 34.466h125.328v-3.045H352.606v3.045zm305.073-28.736l-1.31-.776-.212.359v.417h1.522zm0 90.952v1.522h1.523V258h-1.523zm-84.506 0h-1.523v1.522h1.523V258zm0-92.027h1.522v-.419l-.215-.36-1.307.779zM478.639 7.344V5.822h-2.679l1.372 2.301 1.307-.779zm89.162 0l1.311-.774-.442-.748h-.869v1.522zm51.206 86.655l-1.311.775 1.306 2.21 1.313-2.206-1.308-.779zM670.57 7.344V5.822h-.865l-.443.744 1.308.778zm81.643 0l1.31.775 1.36-2.297h-2.67v1.522zm-96.056 159.704V258h3.045v-90.952h-3.045zm1.522 89.43h-84.506v3.044h84.506v-3.044zM574.695 258v-92.027h-3.045V258h3.045zm-.215-92.806L479.947 6.564l-2.615 1.56 94.533 158.629 2.615-1.559zM478.639 8.866h89.162V5.822h-89.162v3.044zm87.852-.748l51.205 86.656 2.621-1.55L569.112 6.57l-2.621 1.548zm53.824 86.66l51.563-86.656-2.616-1.556-51.563 86.655 2.616 1.557zM670.57 8.866h81.643V5.822H670.57v3.044zm80.333-2.297l-94.534 159.703 2.62 1.551L753.523 8.119l-2.62-1.55zm65.736 175.16l1.046-1.106-1.046 1.106zm10.742 51.922l-1.47-.396 1.47.396zm-11.458 28.288l-1.377-.65-.001.003 1.378.647zm-25.066 53.354v1.522h.967l.411-.875-1.378-.647zm-50.131 0l-1.46-.432-.578 1.954h2.038v-1.522zm17.904-60.516l1.46.432.366-1.239-1.163-.563-.663 1.37zm-17.188-15.397l-1.313.77.006.01.006.01 1.301-.79zm7.162-57.651l-1.046-1.106 1.046 1.106zm34.017-11.011c13.515 0 24.462 4.067 32.972 12.117l2.092-2.212c-9.155-8.66-20.887-12.949-35.064-12.949v3.044zm32.972 12.117c8.485 8.026 12.773 18.704 12.773 32.195h3.044c0-14.2-4.545-25.723-13.725-34.407l-2.092 2.212zm12.773 32.195c0 6.069-.817 12.143-2.455 18.225l2.94.791c1.705-6.331 2.559-12.671 2.559-19.016h-3.044zm-2.455 18.225c-1.633 6.066-5.402 15.392-11.365 28.034l2.754 1.299c5.972-12.661 9.843-22.195 11.551-28.542l-2.94-.791zm-11.366 28.037l-25.066 53.354 2.756 1.294 25.066-53.354-2.756-1.294zm-23.688 52.478h-50.131v3.045h50.131v-3.045zm-48.671 1.955l17.904-60.516-2.92-.864-17.904 60.516 2.92.864zm17.107-62.318c-7.15-3.46-12.652-8.397-16.55-14.817l-2.602 1.58c4.218 6.948 10.176 12.276 17.826 15.978l1.326-2.741zm-16.538-14.797c-3.9-6.654-5.878-14.496-5.878-23.58h-3.045c0 9.537 2.081 17.928 6.297 25.12l2.626-1.54zm-5.878-23.58c0-13.491 4.288-24.169 12.773-32.195l-2.092-2.212c-9.18 8.684-13.726 20.207-13.726 34.407h3.045zm12.773-32.195c8.51-8.05 19.456-12.117 32.971-12.117v-3.044c-14.176 0-25.908 4.289-35.063 12.949l2.092 2.212zm288.9-164.032l-.62 1.39.62-1.39zm39.74 32.943l-1.27.83 1.27-.83zm0 100.262l-1.27-.829 1.27.829zm-39.74 32.944l-.62-1.391.62 1.391zm-96.687 11.458v-1.522h-1.522v1.522h1.522zm0 61.59v1.522h1.523V258h-1.523zm-84.506 0h-1.523v1.522h1.523V258zm0-250.656V5.822h-1.523v1.522h1.523zM998.44 123.72l1.003 1.146.013-.012.013-.012-1.029-1.122zm0-43.328l-1.029 1.123.013.011.014.012 1.002-1.146zm-56.577-7.877v-1.523h-1.522v1.523h1.522zm0 58.725h-1.522v1.522h1.522v-1.522zM978.029 8.866c22.991 0 42.941 3.793 59.901 11.328l1.23-2.783c-17.42-7.743-37.81-11.59-61.131-11.59v3.045zm59.901 11.328c16.94 7.532 29.95 18.33 39.09 32.382l2.55-1.66c-9.49-14.594-22.98-25.758-40.41-33.505l-1.23 2.783zm39.09 32.382c9.13 14.047 13.71 30.462 13.71 49.301h3.05c0-19.356-4.72-36.362-14.21-50.96l-2.55 1.659zm13.71 49.301c0 18.839-4.58 35.254-13.71 49.302l2.55 1.659c9.49-14.599 14.21-31.605 14.21-50.961h-3.05zm-13.71 49.302c-9.14 14.051-22.15 24.85-39.09 32.382l1.23 2.782c17.43-7.746 30.92-18.91 40.41-33.505l-2.55-1.659zm-39.09 32.382c-16.96 7.535-36.91 11.327-59.901 11.327v3.045c23.321 0 43.711-3.847 61.131-11.59l-1.23-2.782zm-59.901 11.327h-36.166v3.045h36.166v-3.045zm-37.688 1.522V258h3.045v-61.59h-3.045zm1.522 60.068h-84.506v3.044h84.506v-3.044zM858.879 258V7.344h-3.045V258h3.045zM857.357 8.866h120.672V5.822H857.357v3.044zm115.301 123.896c11.647 0 20.667-2.543 26.785-7.896l-2.005-2.292c-5.341 4.674-13.51 7.143-24.78 7.143v3.045zm26.811-7.92c6.101-5.597 9.091-13.32 9.091-22.965h-3.05c0 8.975-2.75 15.814-8.099 20.721l2.058 2.244zm9.091-22.965c0-9.642-2.99-17.265-9.117-22.63l-2.005 2.291c5.322 4.66 8.072 11.362 8.072 20.339h3.05zm-9.091-22.607c-6.118-5.608-15.149-8.278-26.811-8.278v3.045c11.255 0 19.413 2.582 24.753 7.477l2.058-2.244zm-26.811-8.278h-30.795v3.045h30.795v-3.045zm-32.317 1.523v58.725h3.045V72.515h-3.045zm1.522 60.247h30.795v-3.045h-30.795v3.045zM1119.97 7.344V5.822h-1.52v1.522h1.52zm84.51 0h1.52V5.822h-1.52v1.522zm0 250.656v1.522h1.52V258h-1.52zm-84.51 0h-1.52v1.522h1.52V258zm0-249.134h84.51V5.822h-84.51v3.044zm82.99-1.522V258h3.04V7.344h-3.04zm1.52 249.134h-84.51v3.044h84.51v-3.044zM1121.49 258V7.344h-3.04V258h3.04zm178.1-185.127h1.52V71.35h-1.52v1.523zm-73.41 0h-1.52v1.522h1.52v-1.522zm0-65.529V5.822h-1.52v1.522h1.52zm231.32 0h1.52V5.822h-1.52v1.522zm0 65.529v1.522h1.52v-1.522h-1.52zm-73.41 0V71.35h-1.52v1.523h1.52zm0 185.127v1.522h1.53V258h-1.53zm-84.5 0h-1.52v1.522h1.52V258zm0-186.65h-73.41v3.045h73.41V71.35zm-71.89 1.523V7.344h-3.04v65.529h3.04zm-1.52-64.007h231.32V5.822h-231.32v3.044zm229.8-1.522v65.529h3.04V7.344h-3.04zm1.52 64.006h-73.41v3.045h73.41V71.35zm-74.93 1.523V258h3.05V72.873h-3.05zm1.52 183.605h-84.5v3.044h84.5v-3.044zM1301.11 258V72.873h-3.04V258h3.04zm232.85-10.742l-.71 1.346.01.006.7-1.352zm-50.13-46.551l-1.31.779.01.009v.009l1.3-.797zm0-135.712l-1.3-.79v.004l1.3.786zm50.13-46.55l.7 1.352.01-.006-.71-1.346zm136.79-3.94l-.63 1.389.63-1.388zm47.27 37.24l1.01 1.137 1.05-.94-.86-1.12-1.2.924zm-53.36 47.626l-1.19.945 1 1.265 1.21-1.075-1.02-1.135zm-97.4-12.175l1.1 1.053.01-.006v-.006l-1.11-1.041zm0 91.31l-1.11 1.041.01.006v.006l1.1-1.053zm97.4-12.533l1.02-1.135-1.21-1.075-1 1.265 1.19.945zm53.36 47.625l1.2.925.86-1.121-1.05-.94-1.01 1.136zm-47.27 37.24l-.63-1.388.63 1.388zm-65.17 11.369c-26.28 0-49.91-5.444-70.92-16.302l-1.4 2.705c21.49 11.104 45.6 16.642 72.32 16.642v-3.045zm-70.91-16.296c-21.01-11.097-37.51-26.427-49.54-46.001l-2.6 1.594c12.33 20.054 29.24 35.757 50.72 47.1l1.42-2.693zm-49.53-45.982c-11.78-19.798-17.69-42.203-17.69-67.257h-3.04c0 25.555 6.03 48.506 18.11 68.814l2.62-1.557zm-17.69-67.257c0-25.054 5.91-47.337 17.69-66.892l-2.61-1.57c-12.09 20.072-18.12 42.908-18.12 68.462h3.04zm17.68-66.887c12.03-19.808 28.53-35.133 49.53-45.988l-1.4-2.705c-21.49 11.107-38.41 26.816-50.73 47.113l2.6 1.58zm49.54-45.994c21.01-11.093 44.63-16.654 70.91-16.654V.092c-26.72 0-50.84 5.66-72.33 17.006l1.42 2.693zm70.91-16.654c24.17 0 45.67 4.265 64.54 12.757l1.25-2.777C1652.05 4.422 1630.11.092 1605.58.092v3.045zm64.54 12.757c18.88 8.493 34.43 20.75 46.69 36.777l2.41-1.85c-12.57-16.438-28.52-29.009-47.85-37.704l-1.25 2.777zM1717 50.61l-53.35 47.625 2.03 2.271 53.35-47.624-2.03-2.272zm-51.15 47.815c-15.74-19.862-34.41-29.94-55.97-29.94v3.045c20.45 0 38.3 9.499 53.59 28.786l2.38-1.891zm-55.97-29.94c-18.03 0-32.66 5.864-43.73 17.67l2.22 2.082c10.42-11.112 24.2-16.707 41.51-16.707v-3.044zm-43.72 17.658c-11.07 11.565-16.53 27.134-16.53 46.529h3.04c0-18.8 5.28-33.549 15.69-44.423l-2.2-2.106zm-16.53 46.529c0 19.396 5.46 35.076 16.52 46.875l2.22-2.082c-10.42-11.118-15.7-25.994-15.7-44.793h-3.04zm16.53 46.887c11.07 11.562 25.7 17.299 43.72 17.299v-3.044c-17.32 0-31.1-5.483-41.52-16.361l-2.2 2.106zm43.72 17.299c21.56 0 40.23-10.076 55.97-29.939l-2.38-1.891c-15.29 19.287-33.14 28.786-53.59 28.786v3.044zm53.77-29.749l53.35 47.625 2.03-2.272-53.35-47.624-2.03 2.271zm53.16 45.564c-12.26 16.028-27.81 28.284-46.69 36.777l1.25 2.777c19.33-8.695 35.28-21.266 47.85-37.704l-2.41-1.85zm-46.69 36.777c-18.87 8.492-40.37 12.757-64.54 12.757v3.045c24.53 0 46.47-4.33 65.79-13.025l-1.25-2.777zM1989.49 7.344h1.52V5.822h-1.52v1.522zm0 250.656v1.522h1.52V258h-1.52zm-84.51 0h-1.52v1.522h1.52V258zm0-92.385h1.53v-1.522h-1.53v1.522zm-78.06 0v-1.522h-1.52v1.522h1.52zm0 92.385v1.522h1.52V258h-1.52zm-84.5 0h-1.53v1.522h1.53V258zm0-250.656V5.822h-1.53v1.522h1.53zm84.5 0h1.52V5.822h-1.52v1.522zm0 88.804h-1.52v1.522h1.52v-1.522zm78.06 0v1.522h1.53v-1.522h-1.53zm0-88.804V5.822h-1.52v1.522h1.52zm82.99 0V258h3.04V7.344h-3.04zm1.52 249.134h-84.51v3.044h84.51v-3.044zM1906.51 258v-92.385h-3.05V258h3.05zm-1.53-93.907h-78.06v3.045h78.06v-3.045zm-79.58 1.522V258h3.04v-92.385h-3.04zm1.52 90.863h-84.5v3.044h84.5v-3.044zM1743.94 258V7.344h-3.05V258h3.05zm-1.52-249.134h84.5V5.822h-84.5v3.044zm82.98-1.522v88.804h3.04V7.344h-3.04zm1.52 90.326h78.06v-3.044h-78.06v3.044zm79.59-1.522V7.344h-3.05v88.804h3.05zm-1.53-87.282h84.51V5.822h-84.51v3.044zm333.63 185.396h1.52v-1.523h-1.52v1.523zm0 63.738v1.522h1.52V258h-1.52zm-208.4 0h-1.52v1.522h1.52V258zm0-250.656V5.822h-1.52v1.522h1.52zm203.75 0h1.52V5.822h-1.52v1.522zm0 63.738v1.523h1.52v-1.523h-1.52zm-120.68 0V69.56h-1.52v1.522h1.52zm0 29.363h-1.52v1.522h1.52v-1.522zm105.99 0h1.53v-1.522h-1.53v1.522zm0 60.873v1.523h1.53v-1.523h-1.53zm-105.99 0v-1.522h-1.52v1.522h1.52zm0 32.944h-1.52v1.522h1.52v-1.522zm123.81 0V258h3.04v-63.738h-3.04zm1.52 62.216h-208.4v3.044h208.4v-3.044zM2031.73 258V7.344h-3.04V258h3.04zm-1.52-249.134h203.75V5.822h-203.75v3.044zm202.22-1.522v63.738h3.05V7.344h-3.05zm1.53 62.216h-120.68v3.045h120.68V69.56zm-122.2 1.522v29.363h3.05V71.082h-3.05zm1.52 30.885h105.99v-3.044h-105.99v3.044zm104.47-1.522v60.873h3.05v-60.873h-3.05zm1.52 59.351h-105.99v3.045h105.99v-3.045zm-107.51 1.522v32.944h3.05v-32.944h-3.05zm1.52 34.466h125.33v-3.045h-125.33v3.045zm190.45 61.142l-.36 1.479.01.002.01.003.34-1.484zm-48.34-18.978l-1.39-.616-.54 1.209 1.12.699.81-1.292zm27.21-61.59l.77-1.317-1.47-.852-.69 1.553 1.39.616zm40.11 16.83l-.43 1.461.01.004.01.003.41-1.468zm67.67 2.864l.6 1.399.03-.011.03-.013-.66-1.375zm-2.5-22.201l-.58 1.41.01.004.01.003.56-1.417zm-32.23-8.594l-.31 1.49v.001l.31-1.491zm-48.34-12.891l-.53 1.428.01.004.01.004.51-1.436zm-33.66-22.917l-1.14 1.012.01.006v.006l1.13-1.024zm-1.07-86.297l1.25.86-1.25-.86zm39.38-30.437l-.58-1.404-.01.003.59 1.401zm114.59-5.371l-.34 1.483.01.003.01.003.32-1.489zm44.04 16.114l1.41.583.52-1.244-1.18-.664-.75 1.325zm-25.42 61.231l-.69 1.36 1.47.738.63-1.514-1.41-.584zm-92.74 8.594l-.58 1.41.03.01.02.008.53-1.428zm31.87 7.878l-.29 1.495.01.001.28-1.496zm48.34 12.533l-.52 1.43.01.005.01.004.5-1.439zm34.01 22.559l-1.12 1.024v.007l.01.007 1.11-1.038zm1.44 85.939l1.25.871v-.011l-1.25-.86zm-39.75 30.437l.6 1.401v-.004l-.6-1.397zm-63.74 9.578c-20.65 0-40.83-2.256-60.53-6.765l-.68 2.968c19.93 4.561 40.33 6.842 61.21 6.842v-3.045zm-60.51-6.76c-19.47-4.749-35.42-11.023-47.9-18.792l-1.61 2.585c12.83 7.987 29.11 14.365 48.79 19.165l.72-2.958zm-47.31-16.884l27.21-61.59-2.78-1.231-27.21 61.59 2.78 1.231zm25.06-60.888c12.05 6.991 25.54 12.647 40.44 16.974l.85-2.923c-14.69-4.267-27.95-9.831-39.76-16.685l-1.53 2.634zm40.46 16.981c14.92 4.089 29.26 6.141 43.02 6.141v-3.044c-13.46 0-27.53-2.007-42.21-6.034l-.81 2.937zm43.02 6.141c11.72 0 20.34-1.066 25.66-3.346l-1.2-2.798c-4.7 2.017-12.79 3.1-24.46 3.1v3.044zm25.72-3.37c2.67-1.272 4.78-2.879 6.22-4.868 1.45-2.007 2.17-4.324 2.17-6.891h-3.05c0 1.968-.54 3.65-1.59 5.105-1.07 1.471-2.72 2.789-5.06 3.905l1.31 2.749zm8.39-11.759c0-2.98-.96-5.629-2.87-7.878-1.89-2.221-4.64-3.985-8.13-5.356l-1.11 2.834c3.19 1.255 5.46 2.774 6.92 4.492 1.43 1.689 2.14 3.636 2.14 5.908h3.05zm-10.98-13.227c-6.58-2.682-17.44-5.569-32.49-8.675l-.62 2.982c15.03 3.102 25.66 5.944 31.96 8.513l1.15-2.82zm-32.49-8.674c-19.29-4.05-35.34-8.33-48.15-12.837l-1.01 2.872c12.98 4.566 29.16 8.879 48.54 12.945l.62-2.98zm-48.12-12.828c-12.66-4.687-23.67-12.184-33.06-22.514l-2.26 2.048c9.71 10.678 21.13 18.459 34.26 23.321l1.06-2.855zm-33.05-22.501c-9.24-10.396-13.94-24.445-13.94-42.316h-3.05c0 18.414 4.86 33.25 14.71 44.339l2.28-2.023zm-13.94-42.316c0-15.451 4.32-29.474 12.98-42.11l-2.51-1.72c-9.01 13.146-13.52 27.77-13.52 43.83h3.05zm12.98-42.11c8.64-12.604 21.51-22.585 38.73-29.896l-1.19-2.802c-17.64 7.49-31.02 17.8-40.05 30.977l2.51 1.722zm38.72-29.893c17.43-7.302 38.59-10.982 63.51-10.982V.092c-25.21 0-46.78 3.72-64.68 11.22l1.17 2.807zm63.51-10.982c17.07 0 33.79 1.897 50.15 5.69l.68-2.966c-16.58-3.846-33.53-5.769-50.83-5.769v3.045zm50.17 5.696c16.59 3.553 31.12 8.876 43.61 15.95l1.5-2.65c-12.8-7.25-27.64-12.67-44.47-16.278l-.64 2.978zm42.96 14.04l-25.43 61.233 2.82 1.167L2472 24.041l-2.81-1.167zm-23.33 60.457c-24.75-12.494-48.26-18.783-70.52-18.783v3.044c21.68 0 44.72 6.125 69.14 18.457l1.38-2.718zm-70.52-18.783c-10.93 0-19.35 1.314-25.1 4.09-2.89 1.399-5.16 3.194-6.7 5.43-1.55 2.249-2.3 4.855-2.3 7.758h3.04c0-2.35.6-4.339 1.77-6.03 1.17-1.702 2.98-3.189 5.52-4.416 5.12-2.476 12.99-3.788 23.77-3.788v-3.044zm-34.1 17.278c0 2.864.93 5.42 2.77 7.606 1.82 2.157 4.48 3.89 7.84 5.262l1.15-2.82c-3.08-1.254-5.26-2.743-6.66-4.406-1.38-1.634-2.06-3.494-2.06-5.642h-3.04zm10.66 12.886c6.57 2.433 17.3 5.078 32.11 7.945l.58-2.99c-14.8-2.862-25.31-5.47-31.63-7.81l-1.06 2.855zm32.12 7.946c19.04 3.571 35.07 7.73 48.1 12.467l1.04-2.861c-13.23-4.811-29.43-9.008-48.58-12.598l-.56 2.992zm48.12 12.476c12.88 4.45 24.01 11.825 33.39 22.144l2.25-2.048c-9.72-10.688-21.27-18.353-34.65-22.974l-.99 2.878zm33.4 22.158c9.46 10.153 14.27 24.068 14.27 41.931h3.05c0-18.422-4.98-33.153-15.09-44.007l-2.23 2.076zm14.27 41.931c0 15.451-4.32 29.474-12.98 42.11l2.51 1.72c9.01-13.146 13.52-27.77 13.52-43.83h-3.05zm-12.97 42.099c-8.64 12.369-21.63 22.356-39.1 29.911l1.2 2.794c17.87-7.724 31.37-18.028 40.4-30.963l-2.5-1.742zm-39.09 29.907c-17.19 7.299-38.22 10.979-63.15 10.979v3.045c25.21 0 46.67-3.72 64.34-11.222l-1.19-2.802zm66.2-243.884V5.822h-1.69l.18 1.68 1.51-.158zm96.68 0l1.52.158.17-1.68h-1.69v1.522zm-16.11 154.691v1.522h1.37l.14-1.365-1.51-.157zm-64.46 0l-1.51.157.14 1.365h1.37v-1.522zm-1.79 87.013l-1.04 1.106 1.04-1.106zm0-60.516l1.02 1.137v-.008l.01-.008-1.03-1.121zm68.04 0l-1.03 1.121.01.008.01.008 1.01-1.137zm0 60.516l1.04 1.106-1.04-1.106zM2493.95 8.866h96.68V5.822h-96.68v3.044zm95.17-1.68L2573 161.877l3.03.315 16.12-154.69-3.03-.316zm-14.6 153.326h-64.46v3.045h64.46v-3.045zm-62.94 1.365l-16.12-154.69-3.02.315 16.11 154.69 3.03-.315zm30.71 98.181c-13.51 0-24.46-4.066-32.97-12.116l-2.09 2.212c9.15 8.66 20.88 12.949 35.06 12.949v-3.045zm-32.97-12.116c-8.54-8.074-12.77-17.822-12.77-29.331h-3.05c0 12.363 4.6 22.906 13.73 31.543l2.09-2.212zm-12.77-29.331c0-11.755 4.24-21.363 12.74-28.942l-2.03-2.273c-9.17 8.176-13.76 18.621-13.76 31.215h3.05zm12.75-28.958c8.51-7.818 19.46-11.773 32.99-11.773v-3.045c-14.16 0-25.89 4.162-35.05 12.577l2.06 2.241zm32.99-11.773c13.53 0 24.48 3.955 32.99 11.773l2.06-2.241c-9.16-8.415-20.88-12.577-35.05-12.577v3.045zm33.01 11.789c8.49 7.579 12.74 17.187 12.74 28.942h3.04c0-12.594-4.59-23.039-13.76-31.215l-2.02 2.273zm12.74 28.942c0 11.509-4.24 21.257-12.78 29.331l2.09 2.212c9.13-8.637 13.73-19.18 13.73-31.543h-3.04zm-12.78 29.331c-8.51 8.05-19.45 12.116-32.97 12.116v3.045c14.18 0 25.91-4.289 35.06-12.949l-2.09-2.212z" fill="url(#paint0_linear)"/><defs><linearGradient id="paint0_linear" x1="1280" y1="-49" x2="1280" y2="245.955" gradientUnits="userSpaceOnUse"><stop stop-color="#FF006B"/><stop offset="1" stop-color="#FF006B" stop-opacity="0"/></linearGradient></defs></svg>