<svg width="390" height="118" fill="none" xmlns="http://www.w3.org/2000/svg"><path d="M32.12 59.28c-5.92 0-11.253-1.227-16-3.68-4.747-2.507-8.48-5.973-11.2-10.4-2.667-4.48-4-9.547-4-15.2 0-5.653 1.333-10.693 4-15.12 2.72-4.48 6.453-7.947 11.2-10.4C20.867 1.973 26.2.72 32.12.72c5.44 0 10.293.96 14.56 2.88 4.267 1.92 7.787 4.693 10.56 8.32L45.32 22.56C41.853 18.187 37.773 16 33.08 16c-3.947 0-7.12 1.28-9.52 3.84-2.4 2.507-3.6 5.893-3.6 10.16s1.2 7.68 3.6 10.24c2.4 2.507 5.573 3.76 9.52 3.76 4.693 0 8.773-2.187 12.24-6.56l11.92 10.64c-2.773 3.627-6.293 6.4-10.56 8.32s-9.12 2.88-14.56 2.88zM106.572 36.08c0 .267-.08 1.68-.24 4.24h-30.4c.64 1.653 1.707 2.933 3.2 3.84 1.494.853 3.36 1.28 5.6 1.28 1.92 0 3.52-.24 4.8-.72 1.334-.48 2.774-1.307 4.32-2.48l9.44 9.52c-4.266 4.693-10.64 7.04-19.12 7.04-5.28 0-9.92-.96-13.92-2.88-4-1.973-7.093-4.693-9.28-8.16-2.186-3.467-3.28-7.36-3.28-11.68 0-4.373 1.067-8.267 3.2-11.68 2.187-3.467 5.147-6.16 8.88-8.08 3.787-1.92 8.027-2.88 12.72-2.88 4.427 0 8.454.88 12.08 2.64 3.68 1.76 6.587 4.347 8.72 7.76 2.187 3.413 3.28 7.493 3.28 12.24zm-23.92-10.32c-1.866 0-3.413.507-4.64 1.52-1.226 1.013-2.026 2.453-2.4 4.32h14.08c-.373-1.813-1.173-3.227-2.4-4.24-1.226-1.067-2.773-1.6-4.64-1.6zM141.878 13.44c5.387 0 9.707 1.627 12.96 4.88 3.307 3.253 4.96 8.16 4.96 14.72V58h-18.08V36.16c0-5.013-1.787-7.52-5.36-7.52-2.027 0-3.68.72-4.96 2.16-1.227 1.387-1.84 3.6-1.84 6.64V58h-18.08V14.24h17.2v4.32a16.687 16.687 0 0 1 5.92-3.84c2.24-.853 4.667-1.28 7.28-1.28zM200.09 56.48c-2.72 1.547-6.427 2.32-11.12 2.32-6.133 0-10.853-1.467-14.16-4.4-3.307-2.987-4.96-7.44-4.96-13.36v-11.2h-6v-13.2h6V4.4h18.08v12.24h8.96v13.2h-8.96v11.04c0 1.333.347 2.373 1.04 3.12.693.747 1.6 1.12 2.72 1.12 1.547 0 2.907-.4 4.08-1.2l4.32 12.56zM249.235 36.08c0 .267-.08 1.68-.24 4.24h-30.4c.64 1.653 1.707 2.933 3.2 3.84 1.493.853 3.36 1.28 5.6 1.28 1.92 0 3.52-.24 4.8-.72 1.333-.48 2.773-1.307 4.32-2.48l9.44 9.52c-4.267 4.693-10.64 7.04-19.12 7.04-5.28 0-9.92-.96-13.92-2.88-4-1.973-7.093-4.693-9.28-8.16-2.187-3.467-3.28-7.36-3.28-11.68 0-4.373 1.067-8.267 3.2-11.68 2.187-3.467 5.147-6.16 8.88-8.08 3.787-1.92 8.027-2.88 12.72-2.88 4.427 0 8.453.88 12.08 2.64 3.68 1.76 6.587 4.347 8.72 7.76 2.187 3.413 3.28 7.493 3.28 12.24zm-23.92-10.32c-1.867 0-3.413.507-4.64 1.52-1.227 1.013-2.027 2.453-2.4 4.32h14.08c-.373-1.813-1.173-3.227-2.4-4.24-1.227-1.067-2.773-1.6-4.64-1.6zM271.341 18.96c3.2-3.68 7.92-5.52 14.16-5.52v16a27.42 27.42 0 0 0-4-.32c-6.187 0-9.28 3.147-9.28 9.44V58h-18.08V14.24h17.2v4.72zM341.293 48.4h-7.44V58h-18.32v-9.6h-29.04v-12L310.253 2h19.36l-21.12 31.76h7.6V25.2h17.76v8.56h7.44V48.4z" fill="#fff"/><path d="M387.926 43.36V58h-44.88V46.4l20.24-18.72c1.76-1.653 2.933-3.067 3.52-4.24.587-1.173.88-2.32.88-3.44 0-1.387-.48-2.453-1.44-3.2-.907-.8-2.24-1.2-4-1.2-1.707 0-3.306.453-4.8 1.36-1.493.907-2.64 2.187-3.44 3.84l-14.24-7.12c2.133-4 5.253-7.147 9.36-9.44 4.107-2.347 9.067-3.52 14.88-3.52 4.427 0 8.347.72 11.76 2.16 3.413 1.44 6.08 3.493 8 6.16 1.92 2.667 2.88 5.733 2.88 9.2 0 3.093-.667 6-2 8.72-1.28 2.667-3.813 5.707-7.6 9.12l-8 7.28h18.88zM6.2 82h4v28h-4V82zM29.742 88.6c2.693 0 4.827.787 6.4 2.36 1.6 1.547 2.4 3.827 2.4 6.84V110h-3.84V98.24c0-2.053-.493-3.6-1.48-4.64-.987-1.04-2.4-1.56-4.24-1.56-2.08 0-3.72.613-4.92 1.84-1.2 1.2-1.8 2.933-1.8 5.2V110h-3.84V88.8h3.68V92c.773-1.093 1.813-1.933 3.12-2.52 1.333-.587 2.84-.88 4.52-.88zM56.369 88.6c2.693 0 4.826.787 6.4 2.36 1.6 1.547 2.4 3.827 2.4 6.84V110h-3.84V98.24c0-2.053-.494-3.6-1.48-4.64-.987-1.04-2.4-1.56-4.24-1.56-2.08 0-3.72.613-4.92 1.84-1.2 1.2-1.8 2.933-1.8 5.2V110h-3.84V88.8h3.68V92c.773-1.093 1.813-1.933 3.12-2.52 1.333-.587 2.84-.88 4.52-.88zM81.872 110.24c-2.106 0-4-.467-5.68-1.4-1.68-.933-3-2.213-3.96-3.84-.933-1.653-1.4-3.52-1.4-5.6 0-2.08.467-3.933 1.4-5.56a9.972 9.972 0 0 1 3.96-3.84c1.68-.933 3.574-1.4 5.68-1.4 2.107 0 3.987.467 5.64 1.4a9.703 9.703 0 0 1 3.92 3.84c.96 1.627 1.44 3.48 1.44 5.56 0 2.08-.48 3.947-1.44 5.6-.933 1.627-2.24 2.907-3.92 3.84-1.653.933-3.533 1.4-5.64 1.4zm0-3.36c1.36 0 2.574-.307 3.64-.92a6.768 6.768 0 0 0 2.56-2.64c.614-1.147.92-2.453.92-3.92s-.306-2.76-.92-3.88c-.613-1.147-1.466-2.027-2.56-2.64-1.066-.613-2.28-.92-3.64-.92-1.36 0-2.586.307-3.68.92-1.066.613-1.92 1.493-2.56 2.64-.613 1.12-.92 2.413-.92 3.88s.307 2.773.92 3.92c.64 1.12 1.494 2 2.56 2.64 1.094.613 2.32.92 3.68.92zM116.757 88.8l-9.28 21.2h-3.92l-9.28-21.2h4l7.28 17 7.44-17h3.76zM127.797 88.6c2.933 0 5.173.72 6.72 2.16 1.573 1.44 2.36 3.587 2.36 6.44V110h-3.64v-2.8c-.64.987-1.56 1.747-2.76 2.28-1.174.507-2.574.76-4.2.76-2.374 0-4.28-.573-5.72-1.72-1.414-1.147-2.12-2.653-2.12-4.52 0-1.867.68-3.36 2.04-4.48 1.36-1.147 3.52-1.72 6.48-1.72h6.08v-.76c0-1.653-.48-2.92-1.44-3.8-.96-.88-2.374-1.32-4.24-1.32-1.254 0-2.48.213-3.68.64-1.2.4-2.214.947-3.04 1.64l-1.6-2.88c1.093-.88 2.4-1.547 3.92-2 1.52-.48 3.133-.72 4.84-.72zm-.88 18.68c1.466 0 2.733-.32 3.8-.96 1.066-.667 1.84-1.6 2.32-2.8v-2.96h-5.92c-3.254 0-4.88 1.093-4.88 3.28 0 1.067.413 1.907 1.24 2.52.826.613 1.973.92 3.44.92zM156.303 108.76c-.56.48-1.253.853-2.08 1.12-.827.24-1.68.36-2.56.36-2.133 0-3.787-.573-4.96-1.72s-1.76-2.787-1.76-4.92V91.96h-3.6V88.8h3.6v-4.64h3.84v4.64h6.08v3.16h-6.08v11.48c0 1.147.28 2.027.84 2.64.587.613 1.413.92 2.48.92 1.173 0 2.173-.333 3-1l1.2 2.76zM161.345 88.8h3.84V110h-3.84V88.8zm1.92-3.08c-.746 0-1.373-.24-1.88-.72a2.394 2.394 0 0 1-.72-1.76c0-.693.24-1.28.72-1.76.507-.507 1.134-.76 1.88-.76.747 0 1.36.24 1.84.72.507.453.76 1.027.76 1.72 0 .72-.253 1.333-.76 1.84-.48.48-1.093.72-1.84.72zM181.997 110.24c-2.106 0-4-.467-5.68-1.4-1.68-.933-3-2.213-3.96-3.84-.933-1.653-1.4-3.52-1.4-5.6 0-2.08.467-3.933 1.4-5.56a9.972 9.972 0 0 1 3.96-3.84c1.68-.933 3.574-1.4 5.68-1.4 2.107 0 3.987.467 5.64 1.4a9.701 9.701 0 0 1 3.92 3.84c.96 1.627 1.44 3.48 1.44 5.56 0 2.08-.48 3.947-1.44 5.6-.933 1.627-2.24 2.907-3.92 3.84-1.653.933-3.533 1.4-5.64 1.4zm0-3.36c1.36 0 2.574-.307 3.64-.92a6.762 6.762 0 0 0 2.56-2.64c.614-1.147.92-2.453.92-3.92s-.306-2.76-.92-3.88c-.613-1.147-1.466-2.027-2.56-2.64-1.066-.613-2.28-.92-3.64-.92-1.36 0-2.586.307-3.68.92-1.066.613-1.92 1.493-2.56 2.64-.613 1.12-.92 2.413-.92 3.88s.307 2.773.92 3.92c.64 1.12 1.494 2 2.56 2.64 1.094.613 2.32.92 3.68.92zM210.028 88.6c2.693 0 4.827.787 6.4 2.36 1.6 1.547 2.4 3.827 2.4 6.84V110h-3.84V98.24c0-2.053-.493-3.6-1.48-4.64-.987-1.04-2.4-1.56-4.24-1.56-2.08 0-3.72.613-4.92 1.84-1.2 1.2-1.8 2.933-1.8 5.2V110h-3.84V88.8h3.68V92c.773-1.093 1.813-1.933 3.12-2.52 1.333-.587 2.84-.88 4.52-.88zM256.877 103h-14.88l-3.08 7h-4.12l12.68-28h3.96l12.72 28h-4.2l-3.08-7zm-1.4-3.2l-6.04-13.72-6.04 13.72h12.08zM287.258 88.8v18.32c0 3.707-.92 6.44-2.76 8.2-1.84 1.787-4.586 2.68-8.24 2.68-2 0-3.906-.28-5.72-.84-1.813-.533-3.28-1.307-4.4-2.32l1.84-2.96c.987.853 2.2 1.52 3.64 2 1.467.507 2.974.76 4.52.76 2.48 0 4.307-.587 5.48-1.76 1.2-1.173 1.8-2.96 1.8-5.36v-1.68a8.64 8.64 0 0 1-3.36 2.48c-1.306.533-2.733.8-4.28.8-2.026 0-3.866-.427-5.52-1.28-1.626-.88-2.906-2.093-3.84-3.64-.933-1.573-1.4-3.36-1.4-5.36 0-2 .467-3.773 1.4-5.32a9.531 9.531 0 0 1 3.84-3.64c1.654-.853 3.494-1.28 5.52-1.28 1.6 0 3.08.293 4.44.88 1.387.587 2.52 1.453 3.4 2.6V88.8h3.64zm-11.04 16.96c1.387 0 2.627-.293 3.72-.88 1.12-.587 1.987-1.4 2.6-2.44.64-1.067.96-2.267.96-3.6 0-2.053-.68-3.707-2.04-4.96-1.36-1.28-3.106-1.92-5.24-1.92-2.16 0-3.92.64-5.28 1.92-1.36 1.253-2.04 2.907-2.04 4.96 0 1.333.307 2.533.92 3.6a6.738 6.738 0 0 0 2.6 2.44c1.12.587 2.387.88 3.8.88zM314.155 99.52c0 .293-.026.68-.08 1.16h-17.2c.24 1.867 1.054 3.373 2.44 4.52 1.414 1.12 3.16 1.68 5.24 1.68 2.534 0 4.574-.853 6.12-2.56l2.12 2.48c-.96 1.12-2.16 1.973-3.6 2.56-1.413.587-3 .88-4.76.88-2.24 0-4.226-.453-5.96-1.36-1.733-.933-3.08-2.227-4.04-3.88-.933-1.653-1.4-3.52-1.4-5.6 0-2.053.454-3.907 1.36-5.56.934-1.653 2.2-2.933 3.8-3.84 1.627-.933 3.454-1.4 5.48-1.4 2.027 0 3.827.467 5.4 1.4 1.6.907 2.84 2.187 3.72 3.84.907 1.653 1.36 3.547 1.36 5.68zm-10.48-7.68c-1.84 0-3.386.56-4.64 1.68-1.226 1.12-1.946 2.587-2.16 4.4h13.6c-.213-1.787-.946-3.24-2.2-4.36-1.226-1.147-2.76-1.72-4.6-1.72zM330.208 88.6c2.693 0 4.826.787 6.4 2.36 1.6 1.547 2.4 3.827 2.4 6.84V110h-3.84V98.24c0-2.053-.494-3.6-1.48-4.64-.987-1.04-2.4-1.56-4.24-1.56-2.08 0-3.72.613-4.92 1.84-1.2 1.2-1.8 2.933-1.8 5.2V110h-3.84V88.8h3.68V92c.773-1.093 1.813-1.933 3.12-2.52 1.333-.587 2.84-.88 4.52-.88zM355.871 110.24c-2.16 0-4.093-.467-5.8-1.4-1.68-.933-3-2.213-3.96-3.84-.96-1.653-1.44-3.52-1.44-5.6 0-2.08.48-3.933 1.44-5.56a9.972 9.972 0 0 1 3.96-3.84c1.707-.933 3.64-1.4 5.8-1.4 1.92 0 3.627.387 5.12 1.16 1.52.773 2.694 1.893 3.52 3.36l-2.92 1.88c-.666-1.013-1.493-1.773-2.48-2.28-.986-.507-2.08-.76-3.28-.76-1.386 0-2.64.307-3.76.92-1.093.613-1.96 1.493-2.6 2.64-.613 1.12-.92 2.413-.92 3.88 0 1.493.307 2.813.92 3.96a6.766 6.766 0 0 0 2.6 2.6c1.12.613 2.374.92 3.76.92 1.2 0 2.294-.253 3.28-.76.987-.507 1.814-1.267 2.48-2.28l2.92 1.84c-.826 1.467-2 2.6-3.52 3.4-1.493.773-3.2 1.16-5.12 1.16zM389.37 88.8l-10.28 23.32c-.907 2.16-1.974 3.68-3.2 4.56-1.2.88-2.654 1.32-4.36 1.32a9.096 9.096 0 0 1-3.04-.52c-.96-.32-1.76-.8-2.4-1.44l1.64-2.88c1.093 1.04 2.36 1.56 3.8 1.56.933 0 1.706-.253 2.32-.76.64-.48 1.213-1.32 1.72-2.52l.68-1.48-9.36-21.16h4l7.4 16.96 7.32-16.96h3.76z" fill="#fff"/></svg>