<svg width="200" height="42" fill="none" xmlns="http://www.w3.org/2000/svg"><path d="M95.109 19.866h-6.826l-1.346 3.133h-2.613l6.143-13.538h2.497L99.126 23h-2.652l-1.365-3.133zm-.839-1.973l-2.574-5.918-2.555 5.918h5.13zM110.733 8.649v14.35h-2.341v-1.334c-.403.49-.903.857-1.501 1.102-.585.245-1.235.367-1.951.367-1.001 0-1.904-.219-2.71-.657a4.78 4.78 0 0 1-1.872-1.857c-.456-.812-.683-1.74-.683-2.785 0-1.044.228-1.966.683-2.765a4.78 4.78 0 0 1 1.872-1.857c.806-.438 1.709-.657 2.71-.657.69 0 1.32.116 1.892.348.572.232 1.06.58 1.463 1.044v-5.3h2.438zm-5.5 12.416a3.22 3.22 0 0 0 1.58-.387c.468-.27.838-.65 1.111-1.14.273-.49.41-1.058.41-1.703 0-.644-.137-1.212-.41-1.702a2.809 2.809 0 0 0-1.111-1.121 3.098 3.098 0 0 0-1.58-.406c-.585 0-1.112.135-1.58.406a2.809 2.809 0 0 0-1.111 1.121c-.273.49-.41 1.058-.41 1.702 0 .645.137 1.212.41 1.702.273.49.643.87 1.111 1.141a3.22 3.22 0 0 0 1.58.387zM123.673 12.672l-4.466 10.327h-2.516l-4.466-10.327h2.535l3.237 7.658 3.335-7.658h2.341zM134.7 17.893c0 .168-.013.406-.039.716h-8.171c.143.76.514 1.367 1.112 1.818.611.438 1.365.657 2.262.657 1.144 0 2.087-.373 2.828-1.121l1.306 1.489a4.4 4.4 0 0 1-1.774 1.257c-.715.284-1.521.425-2.419.425-1.144 0-2.151-.225-3.022-.677-.871-.45-1.547-1.076-2.029-1.876-.468-.812-.702-1.727-.702-2.746 0-1.005.228-1.908.683-2.707a4.942 4.942 0 0 1 1.931-1.896c.819-.45 1.742-.676 2.769-.676 1.014 0 1.918.225 2.711.676a4.585 4.585 0 0 1 1.872 1.876c.455.8.682 1.728.682 2.785zm-5.265-3.404c-.78 0-1.443.233-1.989.697-.533.451-.858 1.057-.975 1.818h5.909c-.104-.748-.423-1.354-.956-1.818-.533-.464-1.196-.697-1.989-.697zM142.951 12.556c1.313 0 2.366.38 3.159 1.14.794.761 1.19 1.89 1.19 3.385V23h-2.438v-5.608c0-.903-.214-1.58-.643-2.031-.429-.464-1.04-.696-1.833-.696-.898 0-1.606.27-2.126.812-.52.528-.78 1.296-.78 2.301V23h-2.438V12.672h2.321v1.334a3.81 3.81 0 0 1 1.521-1.083c.611-.245 1.3-.367 2.067-.367zM156.653 22.438a2.87 2.87 0 0 1-1.054.522 4.628 4.628 0 0 1-1.287.174c-1.144 0-2.028-.296-2.652-.89-.624-.592-.936-1.456-.936-2.59v-4.971h-1.716v-1.934h1.716v-2.36h2.438v2.36h2.789v1.934h-2.789v4.912c0 .503.123.89.37 1.16.247.259.605.387 1.073.387.546 0 1.001-.141 1.365-.425l.683 1.721zM168.74 12.672v10.327h-2.32v-1.315a3.97 3.97 0 0 1-1.463 1.083 4.85 4.85 0 0 1-1.892.367c-1.391 0-2.489-.38-3.295-1.14-.794-.774-1.19-1.915-1.19-3.424v-5.898h2.438v5.57c0 .928.208 1.624.624 2.088.429.451 1.033.677 1.813.677.872 0 1.561-.264 2.068-.793.52-.541.78-1.315.78-2.32v-5.222h2.437zM174.253 14.18c.702-1.083 1.937-1.624 3.705-1.624v2.301a3.112 3.112 0 0 0-.565-.058c-.949 0-1.69.277-2.223.832-.534.541-.8 1.328-.8 2.359v5.009h-2.438V12.672h2.321v1.508zM189.721 17.893c0 .168-.013.406-.039.716h-8.171c.143.76.513 1.367 1.111 1.818.611.438 1.365.657 2.263.657 1.144 0 2.086-.373 2.827-1.121l1.307 1.489a4.403 4.403 0 0 1-1.775 1.257c-.715.284-1.521.425-2.418.425-1.144 0-2.152-.225-3.023-.677-.871-.45-1.547-1.076-2.028-1.876-.468-.812-.702-1.727-.702-2.746 0-1.005.227-1.908.683-2.707a4.94 4.94 0 0 1 1.93-1.896c.819-.45 1.742-.676 2.769-.676 1.015 0 1.918.225 2.711.676a4.585 4.585 0 0 1 1.872 1.876c.455.8.683 1.728.683 2.785zm-5.266-3.404c-.78 0-1.443.233-1.989.697-.533.451-.858 1.057-.975 1.818h5.909c-.104-.748-.422-1.354-.955-1.818-.533-.464-1.196-.697-1.99-.697zM195.28 23.134c-.845 0-1.67-.11-2.476-.328-.806-.22-1.45-.497-1.931-.832l.936-1.837c.468.31 1.027.56 1.677.754.663.18 1.313.27 1.95.27 1.457 0 2.185-.38 2.185-1.14 0-.361-.189-.613-.566-.755-.364-.141-.955-.277-1.775-.406-.858-.129-1.56-.277-2.106-.444a3.338 3.338 0 0 1-1.404-.87c-.39-.426-.585-1.013-.585-1.76 0-.98.41-1.76 1.229-2.34.832-.594 1.95-.89 3.354-.89.715 0 1.43.083 2.145.251.715.155 1.3.367 1.755.638l-.936 1.838c-.884-.516-1.878-.774-2.984-.774-.715 0-1.261.11-1.638.329-.364.206-.546.483-.546.831 0 .387.195.664.585.832.403.155 1.021.303 1.853.445.832.129 1.515.277 2.048.444.533.168.988.452 1.365.851.39.4.585.967.585 1.702 0 .967-.423 1.74-1.268 2.321-.845.58-1.995.87-3.452.87zM86.255 27.408h2.535v11.41h7.138v2.128h-9.673V27.408zM107.875 30.619v10.327h-2.32v-1.334c-.403.49-.904.857-1.502 1.102-.585.245-1.235.367-1.95.367-1.014 0-1.924-.219-2.73-.657a4.78 4.78 0 0 1-1.873-1.857c-.442-.8-.663-1.727-.663-2.785 0-1.057.221-1.979.663-2.765a4.78 4.78 0 0 1 1.873-1.857c.806-.438 1.716-.657 2.73-.657.676 0 1.293.116 1.852.348a4.07 4.07 0 0 1 1.483 1.025v-1.257h2.437zm-5.499 8.393c.897 0 1.638-.297 2.223-.89s.878-1.373.878-2.34c0-.967-.293-1.747-.878-2.34-.585-.593-1.326-.89-2.223-.89-.897 0-1.638.297-2.223.89-.572.593-.859 1.373-.859 2.34 0 .967.287 1.747.859 2.34.585.593 1.326.89 2.223.89zM116.837 30.503c1.015 0 1.918.219 2.711.657a4.746 4.746 0 0 1 1.892 1.857c.455.8.682 1.72.682 2.765 0 1.045-.227 1.973-.682 2.785a4.746 4.746 0 0 1-1.892 1.857c-.793.438-1.696.657-2.711.657a5.144 5.144 0 0 1-1.969-.367 3.783 3.783 0 0 1-1.482-1.102v1.334h-2.321v-14.35h2.438v5.28a4.113 4.113 0 0 1 1.462-1.025 4.934 4.934 0 0 1 1.872-.348zm-.273 8.509c.897 0 1.632-.297 2.204-.89.585-.593.878-1.373.878-2.34 0-.967-.293-1.747-.878-2.34-.572-.593-1.307-.89-2.204-.89-.585 0-1.111.136-1.579.407a2.81 2.81 0 0 0-1.112 1.121c-.273.49-.409 1.058-.409 1.702 0 .645.136 1.212.409 1.702.273.49.644.87 1.112 1.141.468.258.994.387 1.579.387z" fill="#fff"/><path d="M72.433 20.54c0 11.345-9.202 20.541-20.552 20.541H35.135V0h16.746c11.35 0 20.552 9.196 20.552 20.54z" fill="#0FBBBB"/><path d="M0 41.081h47.568L23.784 0 0 41.081z" fill="#5061A0"/><path fill-rule="evenodd" clip-rule="evenodd" d="M35.135 20v21.081h12.433L35.135 20z" fill="#ED534B"/></svg>