<svg width="949" height="248" fill="none" xmlns="http://www.w3.org/2000/svg"><path d="M301.54 78.05V65.73h33.66v.88c0 13.127-3.593 23.247-10.78 30.36-6.453 6.453-15.143 9.68-26.07 9.68-11.147 0-20.02-3.3-26.62-9.9-7.26-7.26-10.89-16.683-10.89-28.27 0-11 3.593-20.093 10.78-27.28 7.333-7.48 16.977-11.22 28.93-11.22 6.453 0 12.1 1.283 16.94 3.85 5.647 2.86 10.23 7.333 13.75 13.42l-12.43 6.71c-1.98-3.813-4.84-6.71-8.58-8.69-3.08-1.54-6.527-2.31-10.34-2.31-6.893 0-12.54 2.163-16.94 6.49-4.913 4.767-7.37 11.22-7.37 19.36 0 7.7 2.42 13.897 7.26 18.59 4.327 4.18 9.753 6.27 16.28 6.27 5.72 0 10.523-1.467 14.41-4.4 3.52-2.713 5.83-6.453 6.93-11.22h-18.92zM390.164 31.63v12.32h-26.4v16.39h25.3v12.32h-25.3v20.02h26.4V105h-40.7V31.63h40.7zM419.434 105h-14.3V31.63h9.9l44.66 48.95V31.63h14.3V105h-9.9l-44.66-49.06V105zM532.549 31.63v12.32h-26.4v16.39h25.3v12.32h-25.3v20.02h26.4V105h-40.7V31.63h40.7zM591.08 38.56l-7.48 9.79c-3.154-4.18-7.15-6.27-11.99-6.27-3.52 0-6.087.88-7.7 2.64-1.614 1.687-2.42 3.667-2.42 5.94 0 1.98.77 3.63 2.31 4.95 1.173 1.1 4.106 2.493 8.8 4.18 7.26 2.493 12.21 4.95 14.85 7.37 4.18 3.74 6.27 8.873 6.27 15.4 0 7.187-2.384 13.017-7.15 17.49-4.694 4.4-10.817 6.6-18.37 6.6-10.56 0-18.994-4.62-25.3-13.86l9.35-8.91c1.613 3.3 3.85 5.757 6.71 7.37 2.86 1.613 5.756 2.42 8.69 2.42 3.3 0 6.013-.917 8.14-2.75 2.126-1.907 3.19-4.363 3.19-7.37 0-2.567-.954-4.767-2.86-6.6-1.76-1.613-5.537-3.41-11.33-5.39-5.427-1.833-9.497-3.96-12.21-6.38-3.887-3.373-5.83-7.92-5.83-13.64 0-5.94 2.016-11 6.05-15.18 4.033-4.253 9.863-6.38 17.49-6.38 8.286 0 15.216 2.86 20.79 8.58zM606.379 31.63h14.3V105h-14.3V31.63zM682.084 38.56l-7.48 9.79c-3.153-4.18-7.15-6.27-11.99-6.27-3.52 0-6.086.88-7.7 2.64-1.613 1.687-2.42 3.667-2.42 5.94 0 1.98.77 3.63 2.31 4.95 1.174 1.1 4.107 2.493 8.8 4.18 7.26 2.493 12.21 4.95 14.85 7.37 4.18 3.74 6.27 8.873 6.27 15.4 0 7.187-2.383 13.017-7.15 17.49-4.693 4.4-10.816 6.6-18.37 6.6-10.56 0-18.993-4.62-25.3-13.86l9.35-8.91c1.614 3.3 3.85 5.757 6.71 7.37 2.86 1.613 5.757 2.42 8.69 2.42 3.3 0 6.014-.917 8.14-2.75 2.127-1.907 3.19-4.363 3.19-7.37 0-2.567-.953-4.767-2.86-6.6-1.76-1.613-5.536-3.41-11.33-5.39-5.426-1.833-9.496-3.96-12.21-6.38-3.886-3.373-5.83-7.92-5.83-13.64 0-5.94 2.017-11 6.05-15.18 4.034-4.253 9.864-6.38 17.49-6.38 8.287 0 15.217 2.86 20.79 8.58zM264.36 139.63h14.3V213h-14.3v-73.37zM310.805 213h-14.3v-73.37h9.9l44.66 48.95v-48.95h14.3V213h-9.9l-44.66-49.06V213zM375.08 139.63h15.62l19.58 49.28 19.58-49.28h15.62L414.46 213h-8.58l-30.8-73.37zM495.811 139.63v12.32h-26.4v16.39h25.3v12.32h-25.3v20.02h26.4V213h-40.7v-73.37h40.7zM554.341 146.56l-7.48 9.79c-3.153-4.18-7.15-6.27-11.99-6.27-3.52 0-6.086.88-7.7 2.64-1.613 1.687-2.42 3.667-2.42 5.94 0 1.98.77 3.63 2.31 4.95 1.174 1.1 4.107 2.493 8.8 4.18 7.26 2.493 12.21 4.95 14.85 7.37 4.18 3.74 6.27 8.873 6.27 15.4 0 7.187-2.383 13.017-7.15 17.49-4.693 4.4-10.816 6.6-18.37 6.6-10.56 0-18.993-4.62-25.3-13.86l9.35-8.91c1.614 3.3 3.85 5.757 6.71 7.37 2.86 1.613 5.757 2.42 8.69 2.42 3.3 0 6.014-.917 8.14-2.75 2.127-1.907 3.19-4.363 3.19-7.37 0-2.567-.953-4.767-2.86-6.6-1.76-1.613-5.536-3.41-11.33-5.39-5.426-1.833-9.496-3.96-12.21-6.38-3.886-3.373-5.83-7.92-5.83-13.64 0-5.94 2.017-11 6.05-15.18 4.034-4.253 9.864-6.38 17.49-6.38 8.287 0 15.217 2.86 20.79 8.58zM609.167 151.95h-16.5V213h-14.3v-61.05h-16.5v-12.32h47.3v12.32zM612.226 213l13.64-73.37h10.34l19.47 46.64 20.35-46.64h10.34l12.32 73.37h-14.52l-6.6-45.21-19.69 45.21h-4.84l-18.81-45.21-7.48 45.21h-14.52zM753.479 139.63v12.32h-26.4v16.39h25.3v12.32h-25.3v20.02h26.4V213h-40.7v-73.37h40.7zM781.749 213h-14.3v-73.37h9.9l44.66 48.95v-48.95h14.3V213h-9.9l-44.66-49.06V213zM894.764 151.95h-16.5V213h-14.3v-61.05h-16.5v-12.32h47.3v12.32zM945.371 146.56l-7.48 9.79c-3.153-4.18-7.15-6.27-11.99-6.27-3.52 0-6.087.88-7.7 2.64-1.613 1.687-2.42 3.667-2.42 5.94 0 1.98.77 3.63 2.31 4.95 1.173 1.1 4.107 2.493 8.8 4.18 7.26 2.493 12.21 4.95 14.85 7.37 4.18 3.74 6.27 8.873 6.27 15.4 0 7.187-2.383 13.017-7.15 17.49-4.693 4.4-10.817 6.6-18.37 6.6-10.56 0-18.993-4.62-25.3-13.86l9.35-8.91c1.613 3.3 3.85 5.757 6.71 7.37 2.86 1.613 5.757 2.42 8.69 2.42 3.3 0 6.013-.917 8.14-2.75 2.127-1.907 3.19-4.363 3.19-7.37 0-2.567-.953-4.767-2.86-6.6-1.76-1.613-5.537-3.41-11.33-5.39-5.427-1.833-9.497-3.96-12.21-6.38-3.887-3.373-5.83-7.92-5.83-13.64 0-5.94 2.017-11 6.05-15.18 4.033-4.253 9.863-6.38 17.49-6.38 8.287 0 15.217 2.86 20.79 8.58z" fill="#fff"/><path d="M120.434 248H90.678V133.276h29.756l54.868 70.176v-70.176h29.756V248h-29.756l-54.868-70.176V248z" fill="#DD1428"/><path d="M37.04 133.276h29.755V248H37.04V133.276z" fill="#fff"/><path d="M0 133.277h37V248H0V133.277z" fill="#DD1428"/><path d="M61.08 76.204v-23.22h59.169c0 11.81-1.433 21.844-4.3 30.1-2.752 8.141-7.453 15.308-14.104 21.5-10.32 9.632-23.793 14.448-40.42 14.448-18.232 0-32.91-5.676-44.032-17.028C6.385 90.996.88 77.179.88 60.552c0-17.43 5.733-31.763 17.2-43C29.318 6.315 44.167.696 62.629.696c12.155 0 22.474 2.58 30.96 7.74 8.944 5.504 15.767 13.359 20.468 23.564l-28.38 11.696c-1.835-4.587-4.587-8.428-8.256-11.524-4.587-3.784-9.919-5.676-15.996-5.676-7.797 0-14.333 2.637-19.608 7.912-6.65 6.65-9.976 15.423-9.976 26.316 0 10.09 3.038 18.347 9.116 24.768 5.504 5.848 12.498 8.772 20.984 8.772 6.765 0 12.27-1.777 16.512-5.332 3.784-3.096 6.135-7.339 7.052-12.728H61.08zM204.148 3.276V28.56h-35.432v19.092h33.54v25.284h-33.54v19.78h35.432V118H138.96V3.276h65.188z" fill="#fff"/></svg>