<svg width="102" height="100" fill="none" xmlns="http://www.w3.org/2000/svg"><path d="M29.702 27.692H21c-11.046 0-20 8.954-20 20v18.39h8.775m0 0V41.769m0 24.315v32.175h10.786m5.668 0H20.56m0 0V72.847M72.298 27.692H81c11.046 0 20 8.954 20 20v18.39h-8.775m0 0V41.769m0 24.315v32.175H81.439m-5.667 0h5.667m0 0V72.847" stroke="#FF006B" stroke-width="2"/><path d="M60.963 45.242v20.84m0 0v32.542H50.908m10.055-32.541h8.41V41.84c0-7.815-6.335-14.15-14.15-14.15v0a.707.707 0 0 0-.5.208l-3.815 3.815-3.81-3.81a.722.722 0 0 0-.51-.212v0a14.444 14.444 0 0 0-14.05 11.089l-6.127 25.657 8.775 2.193 5.667-21.39v53.383h10.055m0 0V72.299" stroke="#fff" stroke-width="2"/><path d="M26 89.648V71h8.044v18.647H26z" stroke="#fff" stroke-width="2"/><path d="M48.166 50.726L50.91 35.37l2.742 15.356-2.742 2.743-2.742-2.743z" stroke="#FF006B" stroke-width="2"/><circle cx="50.36" cy="11.238" r="10.238" stroke="#fff" stroke-width="2"/><circle cx="18.916" cy="11.238" r="10.238" stroke="#FF006B" stroke-width="2"/><circle r="10.238" transform="matrix(-1 0 0 1 83.084 11.238)" stroke="#FF006B" stroke-width="2"/></svg>