<svg width="85" height="103" fill="none" xmlns="http://www.w3.org/2000/svg"><ellipse cx="42.5" cy="43.001" rx="25.5" ry="26" stroke="#fff" stroke-width="2"/><circle cx="42.5" cy="43.501" r="18.5" stroke="#FF006B" stroke-width="2"/><path d="M52.79 76.25l14.74 2.78 1.911-14.877L83 57.74l-7.2-13.158L83 31.423l-13.559-6.414-1.91-14.876-14.74 2.78L42.5 2 32.21 12.913l-14.74-2.78-1.911 14.876L2 31.423l7.2 13.158L2 57.74l13.559 6.414 1.91 14.877 5.03-.949M52.79 76.25L42.5 87.162 32.21 76.249m20.58 0V102M32.21 76.25l-9.712 1.831m9.711-1.832V102M22.5 78.081V102h9.71m0 0L42.5 91.71 52.79 102m9.712-23.919V102H52.79" stroke="#FF006B" stroke-width="2"/><path d="M42.5 34l2.97 5.127 6.065 1.092-4.228 4.261.777 5.802-5.584-2.493-5.584 2.493.777-5.802-4.228-4.26 6.064-1.093L42.5 34z" stroke="#fff" stroke-width="2"/></svg>