<svg width="98" height="101" fill="none" xmlns="http://www.w3.org/2000/svg"><path d="M1 41.112v58.666m0-58.666l33.943 24.723M1 41.112l9.454-7.704M1 99.778h96m-96 0l33.943-33.943m0 0L49 76.075l14.057-10.24M97 41.112v58.666m0-58.666L63.057 65.835M97 41.112l-9.454-7.704M97 99.778L63.057 65.835M41.297 8.278L49 2l7.704 6.278" stroke="#FF006B" stroke-width="2"/><path d="M15.222 45.26v-32h68.74v32" stroke="#fff" stroke-width="2"/><path d="M49.593 23.927l4.365 9.399 10.288 1.247-7.59 7.056 1.993 10.17-9.056-5.039-9.057 5.039 1.994-10.17-7.59-7.056 10.287-1.247 4.366-9.4z" stroke="#fff" stroke-width="2"/></svg>