<svg width="2399" height="1771" viewBox="0 0 2399 1771" fill="none" xmlns="http://www.w3.org/2000/svg">
<circle cx="1324.5" cy="83.5" r="83.5" fill="#25146A" fill-opacity="0.2"/>
<g opacity="0.16" filter="url(#filter0_f)">
<ellipse cx="1892.08" cy="1573.37" rx="325.618" ry="326.165" fill="#379FFF"/>
</g>
<g opacity="0.2" filter="url(#filter1_f)">
<circle cx="987.462" cy="1687.2" r="298.803" fill="#651994"/>
</g>
<g filter="url(#filter2_f)">
<circle cx="1118.8" cy="1148.7" r="459.696" fill="#9211A7" fill-opacity="0.1"/>
</g>
<ellipse cx="405.744" cy="1162.39" rx="296.071" ry="296.071" transform="rotate(-30 405.744 1162.39)" stroke="url(#paint0_linear)" stroke-opacity="0.3" stroke-dasharray="5 7"/>
<ellipse opacity="0.1" cx="866.262" cy="1464.81" rx="107.81" ry="107.262" transform="rotate(-90 866.262 1464.81)" stroke="url(#paint1_linear)"/>
<ellipse opacity="0.1" cx="1750.89" cy="1527.4" rx="83.1831" ry="83.7304" transform="rotate(-90 1750.89 1527.4)" stroke="url(#paint2_linear)"/>
<circle cx="619.157" cy="958.798" r="21.343" fill="#772346"/>
<ellipse cx="783.079" cy="1518.44" rx="18.6068" ry="19.154" fill="#4C0087"/>
<ellipse opacity="0.4" rx="38.8553" ry="39.4025" transform="matrix(1 0 0 -1 1837.35 1533.97)" fill="#146464"/>
<circle r="22.4376" transform="matrix(1 0 0 -1 1957.75 1099.99)" fill="#212060"/>
<defs>
<filter id="filter0_f" x="1066.46" y="747.202" width="1651.24" height="1652.33" filterUnits="userSpaceOnUse" color-interpolation-filters="sRGB">
<feFlood flood-opacity="0" result="BackgroundImageFix"/>
<feBlend mode="normal" in="SourceGraphic" in2="BackgroundImageFix" result="shape"/>
<feGaussianBlur stdDeviation="250" result="effect1_foregroundBlur"/>
</filter>
<filter id="filter1_f" x="494.659" y="1194.39" width="985.605" height="985.605" filterUnits="userSpaceOnUse" color-interpolation-filters="sRGB">
<feFlood flood-opacity="0" result="BackgroundImageFix"/>
<feBlend mode="normal" in="SourceGraphic" in2="BackgroundImageFix" result="shape"/>
<feGaussianBlur stdDeviation="97" result="effect1_foregroundBlur"/>
</filter>
<filter id="filter2_f" x="465.107" y="495" width="1307.39" height="1307.39" filterUnits="userSpaceOnUse" color-interpolation-filters="sRGB">
<feFlood flood-opacity="0" result="BackgroundImageFix"/>
<feBlend mode="normal" in="SourceGraphic" in2="BackgroundImageFix" result="shape"/>
<feGaussianBlur stdDeviation="97" result="effect1_foregroundBlur"/>
</filter>
<linearGradient id="paint0_linear" x1="478.164" y1="1280.26" x2="202.96" y2="1412.48" gradientUnits="userSpaceOnUse">
<stop stop-color="#E6D7FF"/>
<stop offset="1" stop-color="white" stop-opacity="0"/>
</linearGradient>
<linearGradient id="paint1_linear" x1="892.633" y1="1507.51" x2="792.614" y2="1555.81" gradientUnits="userSpaceOnUse">
<stop stop-color="#FD92FF"/>
<stop offset="1" stop-color="#FD92FF" stop-opacity="0"/>
</linearGradient>
<linearGradient id="paint2_linear" x1="1771.23" y1="1560.73" x2="1693.72" y2="1597.73" gradientUnits="userSpaceOnUse">
<stop stop-color="#FD92FF"/>
<stop offset="1" stop-color="#FD92FF" stop-opacity="0"/>
</linearGradient>
</defs>
</svg>
