<svg width="2560" height="317" viewBox="0 0 2560 317" fill="none" xmlns="http://www.w3.org/2000/svg">
<path opacity="0.4" d="M228.814 7.34399H230.337V5.82168H228.814V7.34399ZM228.814 258V259.522H230.337V258H228.814ZM144.307 258H142.785V259.522H144.307V258ZM144.307 165.615H145.83V164.093H144.307V165.615ZM66.2459 165.615V164.093H64.7236V165.615H66.2459ZM66.2459 258V259.522H67.7682V258H66.2459ZM-18.2609 258H-19.7833V259.522H-18.2609V258ZM-18.2609 7.34399V5.82168H-19.7833V7.34399H-18.2609ZM66.2459 7.34399H67.7682V5.82168H66.2459V7.34399ZM66.2459 96.1478H64.7236V97.6702H66.2459V96.1478ZM144.307 96.1478V97.6702H145.83V96.1478H144.307ZM144.307 7.34399V5.82168H142.785V7.34399H144.307ZM227.292 7.34399V258H230.337V7.34399H227.292ZM228.814 256.478H144.307V259.522H228.814V256.478ZM145.83 258V165.615H142.785V258H145.83ZM144.307 164.093H66.2459V167.138H144.307V164.093ZM64.7236 165.615V258H67.7682V165.615H64.7236ZM66.2459 256.478H-18.2609V259.522H66.2459V256.478ZM-16.7386 258V7.34399H-19.7833V258H-16.7386ZM-18.2609 8.86631H66.2459V5.82168H-18.2609V8.86631ZM64.7236 7.34399V96.1478H67.7682V7.34399H64.7236ZM66.2459 97.6702H144.307V94.6255H66.2459V97.6702ZM145.83 96.1478V7.34399H142.785V96.1478H145.83ZM144.307 8.86631H228.814V5.82168H144.307V8.86631ZM477.934 194.262H479.457V192.739H477.934V194.262ZM477.934 258V259.522H479.457V258H477.934ZM269.532 258H268.01V259.522H269.532V258ZM269.532 7.34399V5.82168H268.01V7.34399H269.532ZM473.279 7.34399H474.802V5.82168H473.279V7.34399ZM473.279 71.0822V72.6046H474.802V71.0822H473.279ZM352.606 71.0822V69.5599H351.084V71.0822H352.606ZM352.606 100.445H351.084V101.967H352.606V100.445ZM458.598 100.445H460.12V98.9225H458.598V100.445ZM458.598 161.318V162.841H460.12V161.318H458.598ZM352.606 161.318V159.796H351.084V161.318H352.606ZM352.606 194.262H351.084V195.784H352.606V194.262ZM476.412 194.262V258H479.457V194.262H476.412ZM477.934 256.478H269.532V259.522H477.934V256.478ZM271.054 258V7.34399H268.01V258H271.054ZM269.532 8.86631H473.279V5.82168H269.532V8.86631ZM471.757 7.34399V71.0822H474.802V7.34399H471.757ZM473.279 69.5599H352.606V72.6046H473.279V69.5599ZM351.084 71.0822V100.445H354.129V71.0822H351.084ZM352.606 101.967H458.598V98.9225H352.606V101.967ZM457.076 100.445V161.318H460.12V100.445H457.076ZM458.598 159.796H352.606V162.841H458.598V159.796ZM351.084 161.318V194.262H354.129V161.318H351.084ZM352.606 195.784H477.934V192.739H352.606V195.784ZM657.679 167.048L656.369 166.272L656.157 166.631V167.048H657.679ZM657.679 258V259.522H659.202V258H657.679ZM573.173 258H571.65V259.522H573.173V258ZM573.173 165.973H574.695V165.554L574.48 165.194L573.173 165.973ZM478.639 7.34399V5.82168H475.96L477.332 8.12331L478.639 7.34399ZM567.801 7.34399L569.112 6.56955L568.67 5.82168H567.801V7.34399ZM619.007 93.9994L617.696 94.7738L619.002 96.984L620.315 94.7778L619.007 93.9994ZM670.57 7.34399V5.82168H669.705L669.262 6.56554L670.57 7.34399ZM752.213 7.34399L753.523 8.11943L754.883 5.82168H752.213V7.34399ZM656.157 167.048V258H659.202V167.048H656.157ZM657.679 256.478H573.173V259.522H657.679V256.478ZM574.695 258V165.973H571.65V258H574.695ZM574.48 165.194L479.947 6.56468L477.332 8.12331L571.865 166.753L574.48 165.194ZM478.639 8.86631H567.801V5.82168H478.639V8.86631ZM566.491 8.11844L617.696 94.7738L620.317 93.2249L569.112 6.56955L566.491 8.11844ZM620.315 94.7778L671.878 8.12244L669.262 6.56554L617.699 93.2209L620.315 94.7778ZM670.57 8.86631H752.213V5.82168H670.57V8.86631ZM750.903 6.56856L656.369 166.272L658.989 167.823L753.523 8.11943L750.903 6.56856ZM816.639 181.729L817.685 180.623L816.639 181.729ZM827.381 233.651L825.911 233.255L827.381 233.651ZM815.923 261.939L814.546 261.289L814.545 261.292L815.923 261.939ZM790.857 315.293V316.815H791.824L792.235 315.94L790.857 315.293ZM740.726 315.293L739.266 314.861L738.688 316.815H740.726V315.293ZM758.63 254.777L760.09 255.209L760.456 253.97L759.293 253.407L758.63 254.777ZM741.442 239.38L740.129 240.15L740.135 240.16L740.141 240.17L741.442 239.38ZM748.604 181.729L747.558 180.623L748.604 181.729ZM782.621 170.718C796.136 170.718 807.083 174.785 815.593 182.835L817.685 180.623C808.53 171.963 796.798 167.674 782.621 167.674V170.718ZM815.593 182.835C824.078 190.861 828.366 201.539 828.366 215.03H831.41C831.41 200.83 826.865 189.307 817.685 180.623L815.593 182.835ZM828.366 215.03C828.366 221.099 827.549 227.173 825.911 233.255L828.851 234.046C830.556 227.715 831.41 221.375 831.41 215.03H828.366ZM825.911 233.255C824.278 239.321 820.509 248.647 814.546 261.289L817.3 262.588C823.272 249.927 827.143 240.393 828.851 234.046L825.911 233.255ZM814.545 261.292L789.479 314.646L792.235 315.94L817.301 262.586L814.545 261.292ZM790.857 313.77H740.726V316.815H790.857V313.77ZM742.186 315.725L760.09 255.209L757.17 254.345L739.266 314.861L742.186 315.725ZM759.293 253.407C752.143 249.947 746.641 245.01 742.743 238.59L740.141 240.17C744.359 247.118 750.317 252.446 757.967 256.148L759.293 253.407ZM742.755 238.61C738.855 231.956 736.877 224.114 736.877 215.03H733.832C733.832 224.567 735.913 232.958 740.129 240.15L742.755 238.61ZM736.877 215.03C736.877 201.539 741.165 190.861 749.65 182.835L747.558 180.623C738.378 189.307 733.832 200.83 733.832 215.03H736.877ZM749.65 182.835C758.16 174.785 769.106 170.718 782.621 170.718V167.674C768.445 167.674 756.713 171.963 747.558 180.623L749.65 182.835ZM1038.55 18.8026L1037.93 20.1937L1038.55 18.8026ZM1078.29 51.7459L1077.02 52.5756L1078.29 51.7459ZM1078.29 152.008L1077.02 151.179L1078.29 152.008ZM1038.55 184.952L1037.93 183.561L1038.55 184.952ZM941.863 196.41V194.888H940.341V196.41H941.863ZM941.863 258V259.522H943.386V258H941.863ZM857.357 258H855.834V259.522H857.357V258ZM857.357 7.34399V5.82168H855.834V7.34399H857.357ZM998.44 123.72L999.443 124.866L999.456 124.854L999.469 124.842L998.44 123.72ZM998.44 80.3923L997.411 81.5145L997.424 81.5264L997.438 81.538L998.44 80.3923ZM941.863 72.5146V70.9922H940.341V72.5146H941.863ZM941.863 131.24H940.341V132.762H941.863V131.24ZM978.029 8.86631C1001.02 8.86631 1020.97 12.6587 1037.93 20.1937L1039.16 17.4114C1021.74 9.66833 1001.35 5.82168 978.029 5.82168V8.86631ZM1037.93 20.1937C1054.87 27.7257 1067.88 38.5239 1077.02 52.5756L1079.57 50.9163C1070.08 36.3215 1056.59 25.1575 1039.16 17.4114L1037.93 20.1937ZM1077.02 52.5756C1086.15 66.6233 1090.73 83.0381 1090.73 101.877H1093.78C1093.78 82.5209 1089.06 65.5149 1079.57 50.9163L1077.02 52.5756ZM1090.73 101.877C1090.73 120.716 1086.15 137.131 1077.02 151.179L1079.57 152.838C1089.06 138.239 1093.78 121.233 1093.78 101.877H1090.73ZM1077.02 151.179C1067.88 165.23 1054.87 176.029 1037.93 183.561L1039.16 186.343C1056.59 178.597 1070.08 167.433 1079.57 152.838L1077.02 151.179ZM1037.93 183.561C1020.97 191.096 1001.02 194.888 978.029 194.888V197.933C1001.35 197.933 1021.74 194.086 1039.16 186.343L1037.93 183.561ZM978.029 194.888H941.863V197.933H978.029V194.888ZM940.341 196.41V258H943.386V196.41H940.341ZM941.863 256.478H857.357V259.522H941.863V256.478ZM858.879 258V7.34399H855.834V258H858.879ZM857.357 8.86631H978.029V5.82168H857.357V8.86631ZM972.658 132.762C984.305 132.762 993.325 130.219 999.443 124.866L997.438 122.574C992.097 127.248 983.928 129.717 972.658 129.717V132.762ZM999.469 124.842C1005.57 119.245 1008.56 111.522 1008.56 101.877H1005.51C1005.51 110.852 1002.76 117.691 997.411 122.598L999.469 124.842ZM1008.56 101.877C1008.56 92.2345 1005.57 84.6122 999.443 79.2467L997.438 81.538C1002.76 86.1986 1005.51 92.8996 1005.51 101.877H1008.56ZM999.469 79.2701C993.351 73.662 984.32 70.9922 972.658 70.9922V74.0369C983.913 74.0369 992.071 76.619 997.411 81.5145L999.469 79.2701ZM972.658 70.9922H941.863V74.0369H972.658V70.9922ZM940.341 72.5146V131.24H943.386V72.5146H940.341ZM941.863 132.762H972.658V129.717H941.863V132.762ZM1119.97 7.34399V5.82168H1118.45V7.34399H1119.97ZM1204.48 7.34399H1206V5.82168H1204.48V7.34399ZM1204.48 258V259.522H1206V258H1204.48ZM1119.97 258H1118.45V259.522H1119.97V258ZM1119.97 8.86631H1204.48V5.82168H1119.97V8.86631ZM1202.96 7.34399V258H1206V7.34399H1202.96ZM1204.48 256.478H1119.97V259.522H1204.48V256.478ZM1121.49 258V7.34399H1118.45V258H1121.49ZM1299.59 72.8726H1301.11V71.3503H1299.59V72.8726ZM1226.18 72.8726H1224.66V74.395H1226.18V72.8726ZM1226.18 7.34399V5.82168H1224.66V7.34399H1226.18ZM1457.5 7.34399H1459.02V5.82168H1457.5V7.34399ZM1457.5 72.8726V74.395H1459.02V72.8726H1457.5ZM1384.09 72.8726V71.3503H1382.57V72.8726H1384.09ZM1384.09 258V259.522H1385.62V258H1384.09ZM1299.59 258H1298.07V259.522H1299.59V258ZM1299.59 71.3503H1226.18V74.395H1299.59V71.3503ZM1227.7 72.8726V7.34399H1224.66V72.8726H1227.7ZM1226.18 8.86631H1457.5V5.82168H1226.18V8.86631ZM1455.98 7.34399V72.8726H1459.02V7.34399H1455.98ZM1457.5 71.3503H1384.09V74.395H1457.5V71.3503ZM1382.57 72.8726V258H1385.62V72.8726H1382.57ZM1384.09 256.478H1299.59V259.522H1384.09V256.478ZM1301.11 258V72.8726H1298.07V258H1301.11ZM1533.96 247.258L1533.25 248.604L1533.26 248.61L1533.96 247.258ZM1483.83 200.707L1482.52 201.486L1482.53 201.495L1482.53 201.504L1483.83 200.707ZM1483.83 64.9949L1482.53 64.2048L1482.53 64.2093L1483.83 64.9949ZM1533.96 18.4445L1534.66 19.7969L1534.67 19.7906L1533.96 18.4445ZM1670.75 14.5056L1670.12 15.8938L1670.75 14.5056ZM1718.02 51.7459L1719.03 52.8816L1720.08 51.942L1719.22 50.8212L1718.02 51.7459ZM1664.66 99.3706L1663.47 100.316L1664.47 101.581L1665.68 100.506L1664.66 99.3706ZM1567.26 87.1958L1568.36 88.2486L1568.37 88.2428L1568.37 88.237L1567.26 87.1958ZM1567.26 178.506L1566.15 179.547L1566.16 179.553L1566.16 179.559L1567.26 178.506ZM1664.66 165.973L1665.68 164.838L1664.47 163.763L1663.47 165.028L1664.66 165.973ZM1718.02 213.598L1719.22 214.523L1720.08 213.402L1719.03 212.462L1718.02 213.598ZM1670.75 250.838L1670.12 249.45L1670.75 250.838ZM1605.58 262.207C1579.3 262.207 1555.67 256.763 1534.66 245.905L1533.26 248.61C1554.75 259.714 1578.86 265.252 1605.58 265.252V262.207ZM1534.67 245.911C1513.66 234.814 1497.16 219.484 1485.13 199.91L1482.53 201.504C1494.86 221.558 1511.77 237.261 1533.25 248.604L1534.67 245.911ZM1485.14 199.929C1473.36 180.131 1467.45 157.726 1467.45 132.672H1464.41C1464.41 158.227 1470.44 181.178 1482.52 201.486L1485.14 199.929ZM1467.45 132.672C1467.45 107.618 1473.36 85.3351 1485.14 65.7804L1482.53 64.2093C1470.44 84.2822 1464.41 107.118 1464.41 132.672H1467.45ZM1485.13 65.7849C1497.16 45.9765 1513.66 30.6521 1534.66 19.7968L1533.26 17.0921C1511.77 28.1991 1494.85 43.9082 1482.53 64.2048L1485.13 65.7849ZM1534.67 19.7906C1555.68 8.69803 1579.3 3.13704 1605.58 3.13704V0.0924072C1578.86 0.0924072 1554.74 5.75126 1533.25 17.0983L1534.67 19.7906ZM1605.58 3.13704C1629.75 3.13704 1651.25 7.40154 1670.12 15.8938L1671.37 13.1174C1652.05 4.42183 1630.11 0.0924072 1605.58 0.0924072V3.13704ZM1670.12 15.8938C1689 24.3868 1704.55 36.6434 1716.81 52.6706L1719.22 50.8212C1706.65 34.3825 1690.7 21.8122 1671.37 13.1174L1670.12 15.8938ZM1717 50.6102L1663.65 98.2349L1665.68 100.506L1719.03 52.8816L1717 50.6102ZM1665.85 98.4249C1650.11 78.5625 1631.44 68.4857 1609.88 68.4857V71.5303C1630.33 71.5303 1648.18 81.0286 1663.47 100.316L1665.85 98.4249ZM1609.88 68.4857C1591.85 68.4857 1577.22 74.3493 1566.15 86.1547L1568.37 88.237C1578.79 77.1252 1592.57 71.5303 1609.88 71.5303V68.4857ZM1566.16 86.1431C1555.09 97.7081 1549.63 113.277 1549.63 132.672H1552.67C1552.67 113.872 1557.95 99.1232 1568.36 88.2486L1566.16 86.1431ZM1549.63 132.672C1549.63 152.068 1555.09 167.748 1566.15 179.547L1568.37 177.465C1557.95 166.347 1552.67 151.471 1552.67 132.672H1549.63ZM1566.16 179.559C1577.23 191.121 1591.86 196.858 1609.88 196.858V193.814C1592.56 193.814 1578.78 188.331 1568.36 177.453L1566.16 179.559ZM1609.88 196.858C1631.44 196.858 1650.11 186.782 1665.85 166.919L1663.47 165.028C1648.18 184.315 1630.33 193.814 1609.88 193.814V196.858ZM1663.65 167.109L1717 214.734L1719.03 212.462L1665.68 164.838L1663.65 167.109ZM1716.81 212.673C1704.55 228.701 1689 240.957 1670.12 249.45L1671.37 252.227C1690.7 243.532 1706.65 230.961 1719.22 214.523L1716.81 212.673ZM1670.12 249.45C1651.25 257.942 1629.75 262.207 1605.58 262.207V265.252C1630.11 265.252 1652.05 260.922 1671.37 252.227L1670.12 249.45ZM1989.49 7.34399H1991.01V5.82168H1989.49V7.34399ZM1989.49 258V259.522H1991.01V258H1989.49ZM1904.98 258H1903.46V259.522H1904.98V258ZM1904.98 165.615H1906.51V164.093H1904.98V165.615ZM1826.92 165.615V164.093H1825.4V165.615H1826.92ZM1826.92 258V259.522H1828.44V258H1826.92ZM1742.42 258H1740.89V259.522H1742.42V258ZM1742.42 7.34399V5.82168H1740.89V7.34399H1742.42ZM1826.92 7.34399H1828.44V5.82168H1826.92V7.34399ZM1826.92 96.1478H1825.4V97.6702H1826.92V96.1478ZM1904.98 96.1478V97.6702H1906.51V96.1478H1904.98ZM1904.98 7.34399V5.82168H1903.46V7.34399H1904.98ZM1987.97 7.34399V258H1991.01V7.34399H1987.97ZM1989.49 256.478H1904.98V259.522H1989.49V256.478ZM1906.51 258V165.615H1903.46V258H1906.51ZM1904.98 164.093H1826.92V167.138H1904.98V164.093ZM1825.4 165.615V258H1828.44V165.615H1825.4ZM1826.92 256.478H1742.42V259.522H1826.92V256.478ZM1743.94 258V7.34399H1740.89V258H1743.94ZM1742.42 8.86631H1826.92V5.82168H1742.42V8.86631ZM1825.4 7.34399V96.1478H1828.44V7.34399H1825.4ZM1826.92 97.6702H1904.98V94.6255H1826.92V97.6702ZM1906.51 96.1478V7.34399H1903.46V96.1478H1906.51ZM1904.98 8.86631H1989.49V5.82168H1904.98V8.86631ZM2238.61 194.262H2240.13V192.739H2238.61V194.262ZM2238.61 258V259.522H2240.13V258H2238.61ZM2030.21 258H2028.69V259.522H2030.21V258ZM2030.21 7.34399V5.82168H2028.69V7.34399H2030.21ZM2233.96 7.34399H2235.48V5.82168H2233.96V7.34399ZM2233.96 71.0822V72.6046H2235.48V71.0822H2233.96ZM2113.28 71.0822V69.5599H2111.76V71.0822H2113.28ZM2113.28 100.445H2111.76V101.967H2113.28V100.445ZM2219.27 100.445H2220.8V98.9225H2219.27V100.445ZM2219.27 161.318V162.841H2220.8V161.318H2219.27ZM2113.28 161.318V159.796H2111.76V161.318H2113.28ZM2113.28 194.262H2111.76V195.784H2113.28V194.262ZM2237.09 194.262V258H2240.13V194.262H2237.09ZM2238.61 256.478H2030.21V259.522H2238.61V256.478ZM2031.73 258V7.34399H2028.69V258H2031.73ZM2030.21 8.86631H2233.96V5.82168H2030.21V8.86631ZM2232.43 7.34399V71.0822H2235.48V7.34399H2232.43ZM2233.96 69.5599H2113.28V72.6046H2233.96V69.5599ZM2111.76 71.0822V100.445H2114.81V71.0822H2111.76ZM2113.28 101.967H2219.27V98.9225H2113.28V101.967ZM2217.75 100.445V161.318H2220.8V100.445H2217.75ZM2219.27 159.796H2113.28V162.841H2219.27V159.796ZM2111.76 161.318V194.262H2114.81V161.318H2111.76ZM2113.28 195.784H2238.61V192.739H2113.28V195.784ZM2303.73 256.926L2303.37 258.405L2303.38 258.407L2303.39 258.41L2303.73 256.926ZM2255.39 237.948L2254 237.332L2253.46 238.541L2254.58 239.24L2255.39 237.948ZM2282.6 176.358L2283.37 175.041L2281.9 174.189L2281.21 175.742L2282.6 176.358ZM2322.71 193.188L2322.28 194.649L2322.29 194.653L2322.3 194.656L2322.71 193.188ZM2390.38 196.052L2390.98 197.451L2391.01 197.44L2391.04 197.427L2390.38 196.052ZM2387.88 173.851L2387.3 175.261L2387.31 175.265L2387.32 175.268L2387.88 173.851ZM2355.65 165.257L2355.34 166.747L2355.34 166.748L2355.65 165.257ZM2307.31 152.366L2306.78 153.794L2306.79 153.798L2306.8 153.802L2307.31 152.366ZM2273.65 129.449L2272.51 130.461L2272.52 130.467L2272.52 130.473L2273.65 129.449ZM2272.58 43.152L2273.83 44.0125L2272.58 43.152ZM2311.96 12.7152L2311.38 11.3111L2311.37 11.314L2311.96 12.7152ZM2426.55 7.34399L2426.21 8.82696L2426.22 8.82984L2426.23 8.83252L2426.55 7.34399ZM2470.59 23.4576L2472 24.0414L2472.52 22.7967L2471.34 22.1328L2470.59 23.4576ZM2445.17 84.6893L2444.48 86.0482L2445.95 86.787L2446.58 85.273L2445.17 84.6893ZM2352.43 93.2832L2351.85 94.693L2351.88 94.7022L2351.9 94.7108L2352.43 93.2832ZM2384.3 101.161L2384.01 102.656L2384.02 102.657L2384.3 101.161ZM2432.64 113.694L2432.12 115.124L2432.13 115.129L2432.14 115.133L2432.64 113.694ZM2466.65 136.253L2465.53 137.277L2465.53 137.284L2465.54 137.291L2466.65 136.253ZM2468.09 222.192L2469.34 223.063L2469.34 223.052L2468.09 222.192ZM2428.34 252.629L2428.94 254.03L2428.94 254.026L2428.34 252.629ZM2364.6 262.207C2343.95 262.207 2323.77 259.951 2304.07 255.442L2303.39 258.41C2323.32 262.971 2343.72 265.252 2364.6 265.252V262.207ZM2304.09 255.447C2284.62 250.698 2268.67 244.424 2256.19 236.655L2254.58 239.24C2267.41 247.227 2283.69 253.605 2303.37 258.405L2304.09 255.447ZM2256.78 238.563L2283.99 176.973L2281.21 175.742L2254 237.332L2256.78 238.563ZM2281.84 177.675C2293.89 184.666 2307.38 190.322 2322.28 194.649L2323.13 191.726C2308.44 187.459 2295.18 181.895 2283.37 175.041L2281.84 177.675ZM2322.3 194.656C2337.22 198.745 2351.56 200.797 2365.32 200.797V197.753C2351.86 197.753 2337.79 195.746 2323.11 191.719L2322.3 194.656ZM2365.32 200.797C2377.04 200.797 2385.66 199.731 2390.98 197.451L2389.78 194.653C2385.08 196.67 2376.99 197.753 2365.32 197.753V200.797ZM2391.04 197.427C2393.71 196.155 2395.82 194.548 2397.26 192.559C2398.71 190.552 2399.43 188.235 2399.43 185.668H2396.38C2396.38 187.636 2395.84 189.318 2394.79 190.773C2393.72 192.244 2392.07 193.562 2389.73 194.678L2391.04 197.427ZM2399.43 185.668C2399.43 182.688 2398.47 180.039 2396.56 177.79C2394.67 175.569 2391.92 173.805 2388.43 172.434L2387.32 175.268C2390.51 176.523 2392.78 178.042 2394.24 179.76C2395.67 181.449 2396.38 183.396 2396.38 185.668H2399.43ZM2388.45 172.441C2381.87 169.759 2371.01 166.872 2355.96 163.766L2355.34 166.748C2370.37 169.85 2381 172.692 2387.3 175.261L2388.45 172.441ZM2355.96 163.767C2336.67 159.717 2320.62 155.437 2307.81 150.93L2306.8 153.802C2319.78 158.368 2335.96 162.681 2355.34 166.747L2355.96 163.767ZM2307.84 150.939C2295.18 146.252 2284.17 138.755 2274.78 128.425L2272.52 130.473C2282.23 141.151 2293.65 148.932 2306.78 153.794L2307.84 150.939ZM2274.79 128.438C2265.55 118.042 2260.85 103.993 2260.85 86.1216H2257.8C2257.8 104.536 2262.66 119.372 2272.51 130.461L2274.79 128.438ZM2260.85 86.1216C2260.85 70.6705 2265.17 56.6478 2273.83 44.0125L2271.32 42.2915C2262.31 55.438 2257.8 70.0617 2257.8 86.1216H2260.85ZM2273.83 44.0125C2282.47 31.4076 2295.34 21.4274 2312.56 14.1164L2311.37 11.314C2293.73 18.8036 2280.35 29.1147 2271.32 42.2915L2273.83 44.0125ZM2312.55 14.1193C2329.98 6.81706 2351.14 3.13704 2376.06 3.13704V0.0924072C2350.85 0.0924072 2329.28 3.81269 2311.38 11.3111L2312.55 14.1193ZM2376.06 3.13704C2393.13 3.13704 2409.85 5.03402 2426.21 8.82696L2426.89 5.86103C2410.31 2.01493 2393.36 0.0924072 2376.06 0.0924072V3.13704ZM2426.23 8.83252C2442.82 12.3865 2457.35 17.7089 2469.84 24.7824L2471.34 22.1328C2458.54 14.8831 2443.7 9.46312 2426.87 5.85547L2426.23 8.83252ZM2469.19 22.8738L2443.76 84.1055L2446.58 85.273L2472 24.0414L2469.19 22.8738ZM2445.86 83.3303C2421.11 70.8361 2397.6 64.5468 2375.34 64.5468V67.5914C2397.02 67.5914 2420.06 73.7155 2444.48 86.0482L2445.86 83.3303ZM2375.34 64.5468C2364.41 64.5468 2355.99 65.8609 2350.24 68.6375C2347.35 70.0358 2345.08 71.8313 2343.54 74.0676C2341.99 76.3159 2341.24 78.9217 2341.24 81.8246H2344.28C2344.28 79.4758 2344.88 77.4862 2346.05 75.7956C2347.22 74.093 2349.03 72.6061 2351.57 71.3785C2356.69 68.9033 2364.56 67.5914 2375.34 67.5914V64.5468ZM2341.24 81.8246C2341.24 84.6893 2342.17 87.2455 2344.01 89.4308C2345.83 91.5881 2348.49 93.3216 2351.85 94.693L2353 91.8734C2349.92 90.6189 2347.74 89.1297 2346.34 87.4674C2344.96 85.8332 2344.28 83.9731 2344.28 81.8246H2341.24ZM2351.9 94.7108C2358.47 97.1444 2369.2 99.7892 2384.01 102.656L2384.59 99.6664C2369.79 96.8035 2359.28 94.1964 2352.96 91.8557L2351.9 94.7108ZM2384.02 102.657C2403.06 106.228 2419.09 110.387 2432.12 115.124L2433.16 112.263C2419.93 107.452 2403.73 103.255 2384.58 99.6647L2384.02 102.657ZM2432.14 115.133C2445.02 119.583 2456.15 126.958 2465.53 137.277L2467.78 135.229C2458.06 124.541 2446.51 116.876 2433.13 112.255L2432.14 115.133ZM2465.54 137.291C2475 147.444 2479.81 161.359 2479.81 179.222H2482.86C2482.86 160.8 2477.88 146.069 2467.77 135.215L2465.54 137.291ZM2479.81 179.222C2479.81 194.673 2475.49 208.696 2466.83 221.332L2469.34 223.052C2478.35 209.906 2482.86 195.282 2482.86 179.222H2479.81ZM2466.84 221.321C2458.2 233.69 2445.21 243.677 2427.74 251.232L2428.94 254.026C2446.81 246.302 2460.31 235.998 2469.34 223.063L2466.84 221.321ZM2427.75 251.228C2410.56 258.527 2389.53 262.207 2364.6 262.207V265.252C2389.81 265.252 2411.27 261.532 2428.94 254.03L2427.75 251.228ZM2493.95 7.34399V5.82168H2492.26L2492.44 7.50171L2493.95 7.34399ZM2590.63 7.34399L2592.15 7.50171L2592.32 5.82168H2590.63V7.34399ZM2574.52 162.035V163.557H2575.89L2576.03 162.192L2574.52 162.035ZM2510.06 162.035L2508.55 162.192L2508.69 163.557H2510.06V162.035ZM2508.27 249.048L2507.23 250.154L2508.27 249.048ZM2508.27 188.532L2509.29 189.669L2509.29 189.661L2509.3 189.653L2508.27 188.532ZM2576.31 188.532L2575.28 189.653L2575.29 189.661L2575.3 189.669L2576.31 188.532ZM2576.31 249.048L2577.35 250.154L2576.31 249.048ZM2493.95 8.86631H2590.63V5.82168H2493.95V8.86631ZM2589.12 7.18627L2573 161.877L2576.03 162.192L2592.15 7.50171L2589.12 7.18627ZM2574.52 160.512H2510.06V163.557H2574.52V160.512ZM2511.58 161.877L2495.46 7.18627L2492.44 7.50171L2508.55 162.192L2511.58 161.877ZM2542.29 260.058C2528.78 260.058 2517.83 255.992 2509.32 247.942L2507.23 250.154C2516.38 258.814 2528.11 263.103 2542.29 263.103V260.058ZM2509.32 247.942C2500.78 239.868 2496.55 230.12 2496.55 218.611H2493.5C2493.5 230.974 2498.1 241.517 2507.23 250.154L2509.32 247.942ZM2496.55 218.611C2496.55 206.856 2500.79 197.248 2509.29 189.669L2507.26 187.396C2498.09 195.572 2493.5 206.017 2493.5 218.611H2496.55ZM2509.3 189.653C2517.81 181.835 2528.76 177.88 2542.29 177.88V174.835C2528.13 174.835 2516.4 178.997 2507.24 187.412L2509.3 189.653ZM2542.29 177.88C2555.82 177.88 2566.77 181.835 2575.28 189.653L2577.34 187.412C2568.18 178.997 2556.46 174.835 2542.29 174.835V177.88ZM2575.3 189.669C2583.79 197.248 2588.04 206.856 2588.04 218.611H2591.08C2591.08 206.017 2586.49 195.572 2577.32 187.396L2575.3 189.669ZM2588.04 218.611C2588.04 230.12 2583.8 239.868 2575.26 247.942L2577.35 250.154C2586.48 241.517 2591.08 230.974 2591.08 218.611H2588.04ZM2575.26 247.942C2566.75 255.992 2555.81 260.058 2542.29 260.058V263.103C2556.47 263.103 2568.2 258.814 2577.35 250.154L2575.26 247.942Z" fill="url(#paint0_linear)"/>
<defs>
<linearGradient id="paint0_linear" x1="1280" y1="-49" x2="1280" y2="245.955" gradientUnits="userSpaceOnUse">
<stop stop-color="#FF006B"/>
<stop offset="1" stop-color="#FF006B" stop-opacity="0"/>
</linearGradient>
</defs>
</svg>
