<svg width="949" height="248" viewBox="0 0 949 248" fill="none" xmlns="http://www.w3.org/2000/svg">
<path d="M301.54 78.05V65.73H335.2V66.61C335.2 79.7367 331.607 89.8567 324.42 96.97C317.967 103.423 309.277 106.65 298.35 106.65C287.203 106.65 278.33 103.35 271.73 96.75C264.47 89.49 260.84 80.0667 260.84 68.48C260.84 57.48 264.433 48.3866 271.62 41.2C278.953 33.72 288.597 29.98 300.55 29.98C307.003 29.98 312.65 31.2633 317.49 33.83C323.137 36.69 327.72 41.1633 331.24 47.25L318.81 53.96C316.83 50.1466 313.97 47.25 310.23 45.27C307.15 43.73 303.703 42.96 299.89 42.96C292.997 42.96 287.35 45.1233 282.95 49.45C278.037 54.2167 275.58 60.67 275.58 68.81C275.58 76.51 278 82.7067 282.84 87.4C287.167 91.58 292.593 93.67 299.12 93.67C304.84 93.67 309.643 92.2033 313.53 89.27C317.05 86.5566 319.36 82.8167 320.46 78.05H301.54Z" fill="white"/>
<path d="M390.164 31.63V43.95H363.764V60.34H389.064V72.66H363.764V92.68H390.164V105H349.464V31.63H390.164Z" fill="white"/>
<path d="M419.434 105H405.134V31.63H415.034L459.694 80.58V31.63H473.994V105H464.094L419.434 55.94V105Z" fill="white"/>
<path d="M532.549 31.63V43.95H506.149V60.34H531.449V72.66H506.149V92.68H532.549V105H491.849V31.63H532.549Z" fill="white"/>
<path d="M591.08 38.56L583.6 48.35C580.446 44.17 576.45 42.08 571.61 42.08C568.09 42.08 565.523 42.96 563.91 44.72C562.296 46.4066 561.49 48.3866 561.49 50.66C561.49 52.64 562.26 54.29 563.8 55.61C564.973 56.71 567.906 58.1033 572.6 59.79C579.86 62.2833 584.81 64.74 587.45 67.16C591.63 70.9 593.72 76.0333 593.72 82.56C593.72 89.7466 591.336 95.5767 586.57 100.05C581.876 104.45 575.753 106.65 568.2 106.65C557.64 106.65 549.206 102.03 542.9 92.79L552.25 83.88C553.863 87.18 556.1 89.6367 558.96 91.25C561.82 92.8633 564.716 93.67 567.65 93.67C570.95 93.67 573.663 92.7533 575.79 90.92C577.916 89.0133 578.98 86.5566 578.98 83.55C578.98 80.9833 578.026 78.7833 576.12 76.95C574.36 75.3366 570.583 73.54 564.79 71.56C559.363 69.7266 555.293 67.6 552.58 65.18C548.693 61.8066 546.75 57.26 546.75 51.54C546.75 45.6 548.766 40.54 552.8 36.36C556.833 32.1066 562.663 29.98 570.29 29.98C578.576 29.98 585.506 32.84 591.08 38.56Z" fill="white"/>
<path d="M606.379 31.63H620.679V105H606.379V31.63Z" fill="white"/>
<path d="M682.084 38.56L674.604 48.35C671.451 44.17 667.454 42.08 662.614 42.08C659.094 42.08 656.528 42.96 654.914 44.72C653.301 46.4066 652.494 48.3866 652.494 50.66C652.494 52.64 653.264 54.29 654.804 55.61C655.978 56.71 658.911 58.1033 663.604 59.79C670.864 62.2833 675.814 64.74 678.454 67.16C682.634 70.9 684.724 76.0333 684.724 82.56C684.724 89.7466 682.341 95.5767 677.574 100.05C672.881 104.45 666.758 106.65 659.204 106.65C648.644 106.65 640.211 102.03 633.904 92.79L643.254 83.88C644.868 87.18 647.104 89.6367 649.964 91.25C652.824 92.8633 655.721 93.67 658.654 93.67C661.954 93.67 664.668 92.7533 666.794 90.92C668.921 89.0133 669.984 86.5566 669.984 83.55C669.984 80.9833 669.031 78.7833 667.124 76.95C665.364 75.3366 661.588 73.54 655.794 71.56C650.368 69.7266 646.298 67.6 643.584 65.18C639.698 61.8066 637.754 57.26 637.754 51.54C637.754 45.6 639.771 40.54 643.804 36.36C647.838 32.1066 653.668 29.98 661.294 29.98C669.581 29.98 676.511 32.84 682.084 38.56Z" fill="white"/>
<path d="M264.36 139.63H278.66V213H264.36V139.63Z" fill="white"/>
<path d="M310.805 213H296.505V139.63H306.405L351.065 188.58V139.63H365.365V213H355.465L310.805 163.94V213Z" fill="white"/>
<path d="M375.08 139.63H390.7L410.28 188.91L429.86 139.63H445.48L414.46 213H405.88L375.08 139.63Z" fill="white"/>
<path d="M495.811 139.63V151.95H469.411V168.34H494.711V180.66H469.411V200.68H495.811V213H455.111V139.63H495.811Z" fill="white"/>
<path d="M554.341 146.56L546.861 156.35C543.708 152.17 539.711 150.08 534.871 150.08C531.351 150.08 528.785 150.96 527.171 152.72C525.558 154.407 524.751 156.387 524.751 158.66C524.751 160.64 525.521 162.29 527.061 163.61C528.235 164.71 531.168 166.103 535.861 167.79C543.121 170.283 548.071 172.74 550.711 175.16C554.891 178.9 556.981 184.033 556.981 190.56C556.981 197.747 554.598 203.577 549.831 208.05C545.138 212.45 539.015 214.65 531.461 214.65C520.901 214.65 512.468 210.03 506.161 200.79L515.511 191.88C517.125 195.18 519.361 197.637 522.221 199.25C525.081 200.863 527.978 201.67 530.911 201.67C534.211 201.67 536.925 200.753 539.051 198.92C541.178 197.013 542.241 194.557 542.241 191.55C542.241 188.983 541.288 186.783 539.381 184.95C537.621 183.337 533.845 181.54 528.051 179.56C522.625 177.727 518.555 175.6 515.841 173.18C511.955 169.807 510.011 165.26 510.011 159.54C510.011 153.6 512.028 148.54 516.061 144.36C520.095 140.107 525.925 137.98 533.551 137.98C541.838 137.98 548.768 140.84 554.341 146.56Z" fill="white"/>
<path d="M609.167 151.95H592.667V213H578.367V151.95H561.867V139.63H609.167V151.95Z" fill="white"/>
<path d="M612.226 213L625.866 139.63H636.206L655.676 186.27L676.026 139.63H686.366L698.686 213H684.166L677.566 167.79L657.876 213H653.036L634.226 167.79L626.746 213H612.226Z" fill="white"/>
<path d="M753.479 139.63V151.95H727.079V168.34H752.379V180.66H727.079V200.68H753.479V213H712.779V139.63H753.479Z" fill="white"/>
<path d="M781.749 213H767.449V139.63H777.349L822.009 188.58V139.63H836.309V213H826.409L781.749 163.94V213Z" fill="white"/>
<path d="M894.764 151.95H878.264V213H863.964V151.95H847.464V139.63H894.764V151.95Z" fill="white"/>
<path d="M945.371 146.56L937.891 156.35C934.738 152.17 930.741 150.08 925.901 150.08C922.381 150.08 919.814 150.96 918.201 152.72C916.588 154.407 915.781 156.387 915.781 158.66C915.781 160.64 916.551 162.29 918.091 163.61C919.264 164.71 922.198 166.103 926.891 167.79C934.151 170.283 939.101 172.74 941.741 175.16C945.921 178.9 948.011 184.033 948.011 190.56C948.011 197.747 945.628 203.577 940.861 208.05C936.168 212.45 930.044 214.65 922.491 214.65C911.931 214.65 903.498 210.03 897.191 200.79L906.541 191.88C908.154 195.18 910.391 197.637 913.251 199.25C916.111 200.863 919.008 201.67 921.941 201.67C925.241 201.67 927.954 200.753 930.081 198.92C932.208 197.013 933.271 194.557 933.271 191.55C933.271 188.983 932.318 186.783 930.411 184.95C928.651 183.337 924.874 181.54 919.081 179.56C913.654 177.727 909.584 175.6 906.871 173.18C902.984 169.807 901.041 165.26 901.041 159.54C901.041 153.6 903.058 148.54 907.091 144.36C911.124 140.107 916.954 137.98 924.581 137.98C932.868 137.98 939.798 140.84 945.371 146.56Z" fill="white"/>
<path d="M120.434 248H90.6777V133.276H120.434L175.302 203.452V133.276H205.058V248H175.302L120.434 177.824V248Z" fill="#DD1428"/>
<path d="M37.0391 133.276H66.7951V248H37.0391V133.276Z" fill="white"/>
<path d="M0 133.277H37V248H0V133.277Z" fill="#DD1428"/>
<path d="M61.0809 76.204V52.984H120.249C120.249 64.7947 118.816 74.828 115.949 83.084C113.197 91.2253 108.496 98.392 101.845 104.584C91.5249 114.216 78.0515 119.032 61.4249 119.032C43.1929 119.032 28.5155 113.356 17.3929 102.004C6.38486 90.996 0.880859 77.1787 0.880859 60.552C0.880859 43.1227 6.61419 28.7893 18.0809 17.552C29.3182 6.31465 44.1675 0.695984 62.6289 0.695984C74.7835 0.695984 85.1035 3.27599 93.5889 8.43599C102.533 13.94 109.356 21.7947 114.057 32L85.6769 43.696C83.8422 39.1093 81.0902 35.268 77.4209 32.172C72.8342 28.388 67.5022 26.496 61.4249 26.496C53.6275 26.496 47.0915 29.1333 41.8169 34.408C35.1662 41.0586 31.8409 49.8307 31.8409 60.724C31.8409 70.8147 34.8795 79.0707 40.9569 85.492C46.4609 91.34 53.4555 94.264 61.9409 94.264C68.7062 94.264 74.2102 92.4867 78.4529 88.932C82.2369 85.836 84.5875 81.5933 85.5049 76.204H61.0809Z" fill="white"/>
<path d="M204.148 3.27598V28.56H168.716V47.652H202.256V72.936H168.716V92.716H204.148V118H138.96V3.27598H204.148Z" fill="white"/>
</svg>
