<svg width="200" height="42" viewBox="0 0 200 42" fill="none" xmlns="http://www.w3.org/2000/svg">
<path d="M95.1088 19.866H88.2831L86.9375 22.999H84.3242L90.4673 9.4612H92.9636L99.1262 22.999H96.4739L95.1088 19.866ZM94.2702 17.8933L91.6959 11.9754L89.1412 17.8933H94.2702Z" fill="white"/>
<path d="M110.733 8.64893V22.999H108.392V21.6646C107.989 22.1545 107.489 22.522 106.891 22.7669C106.306 23.0119 105.656 23.1344 104.94 23.1344C103.939 23.1344 103.036 22.9152 102.23 22.4768C101.437 22.0385 100.813 21.4196 100.358 20.6202C99.9025 19.808 99.675 18.8796 99.675 17.8353C99.675 16.791 99.9025 15.8691 100.358 15.0697C100.813 14.2703 101.437 13.6515 102.23 13.2131C103.036 12.7747 103.939 12.5556 104.94 12.5556C105.63 12.5556 106.26 12.6716 106.832 12.9037C107.404 13.1357 107.892 13.4839 108.295 13.948V8.64893H110.733ZM105.233 21.065C105.818 21.065 106.345 20.9361 106.813 20.6782C107.281 20.4075 107.651 20.0271 107.924 19.5372C108.197 19.0473 108.334 18.48 108.334 17.8353C108.334 17.1906 108.197 16.6233 107.924 16.1334C107.651 15.6435 107.281 15.2696 106.813 15.0117C106.345 14.7409 105.818 14.6056 105.233 14.6056C104.648 14.6056 104.121 14.7409 103.653 15.0117C103.185 15.2696 102.815 15.6435 102.542 16.1334C102.269 16.6233 102.132 17.1906 102.132 17.8353C102.132 18.48 102.269 19.0473 102.542 19.5372C102.815 20.0271 103.185 20.4075 103.653 20.6782C104.121 20.9361 104.648 21.065 105.233 21.065Z" fill="white"/>
<path d="M123.673 12.6716L119.207 22.999H116.691L112.225 12.6716H114.76L117.997 20.3301L121.332 12.6716H123.673Z" fill="white"/>
<path d="M134.7 17.8933C134.7 18.0609 134.687 18.2995 134.661 18.6089H126.49C126.633 19.3696 127.004 19.9756 127.602 20.4268C128.213 20.8652 128.967 21.0844 129.864 21.0844C131.008 21.0844 131.951 20.7105 132.692 19.9627L133.998 21.4518C133.53 22.0062 132.939 22.4253 132.224 22.7089C131.509 22.9926 130.703 23.1344 129.805 23.1344C128.661 23.1344 127.654 22.9088 126.783 22.4575C125.912 22.0062 125.236 21.3809 124.754 20.5815C124.286 19.7693 124.052 18.8539 124.052 17.8353C124.052 16.8296 124.28 15.9271 124.735 15.1277C125.203 14.3155 125.847 13.6837 126.666 13.2324C127.485 12.7812 128.408 12.5556 129.435 12.5556C130.449 12.5556 131.353 12.7812 132.146 13.2324C132.952 13.6708 133.576 14.2961 134.018 15.1084C134.473 15.9078 134.7 16.8361 134.7 17.8933ZM129.435 14.4895C128.655 14.4895 127.992 14.7216 127.446 15.1858C126.913 15.637 126.588 16.243 126.471 17.0037H132.38C132.276 16.2559 131.957 15.6499 131.424 15.1858C130.891 14.7216 130.228 14.4895 129.435 14.4895Z" fill="white"/>
<path d="M142.951 12.5556C144.264 12.5556 145.317 12.9359 146.11 13.6966C146.904 14.4573 147.3 15.5854 147.3 17.0811V22.999H144.862V17.3905C144.862 16.488 144.648 15.8111 144.219 15.3598C143.79 14.8957 143.179 14.6636 142.386 14.6636C141.488 14.6636 140.78 14.9343 140.26 15.4759C139.74 16.0045 139.48 16.7716 139.48 17.7773V22.999H137.042V12.6716H139.363V14.006C139.766 13.529 140.273 13.168 140.884 12.923C141.495 12.678 142.184 12.5556 142.951 12.5556Z" fill="white"/>
<path d="M156.653 22.4382C156.367 22.6702 156.016 22.8443 155.599 22.9603C155.196 23.0764 154.767 23.1344 154.312 23.1344C153.168 23.1344 152.284 22.8379 151.66 22.2448C151.036 21.6517 150.724 20.7878 150.724 19.6532V14.6829H149.008V12.749H150.724V10.3895H153.162V12.749H155.951V14.6829H153.162V19.5952C153.162 20.0981 153.285 20.4848 153.532 20.7556C153.779 21.0135 154.137 21.1424 154.605 21.1424C155.151 21.1424 155.606 21.0006 155.97 20.7169L156.653 22.4382Z" fill="white"/>
<path d="M168.74 12.6716V22.999H166.42V21.6839C166.03 22.1481 165.542 22.5091 164.957 22.7669C164.372 23.0119 163.741 23.1344 163.065 23.1344C161.674 23.1344 160.576 22.754 159.77 21.9933C158.976 21.2198 158.58 20.0787 158.58 18.5702V12.6716H161.018V18.2414C161.018 19.1697 161.226 19.866 161.642 20.3301C162.071 20.7814 162.675 21.007 163.455 21.007C164.327 21.007 165.016 20.7427 165.523 20.2141C166.043 19.6726 166.303 18.899 166.303 17.8933V12.6716H168.74Z" fill="white"/>
<path d="M174.253 14.1801C174.955 13.0971 176.19 12.5556 177.958 12.5556V14.857C177.75 14.8183 177.562 14.799 177.393 14.799C176.444 14.799 175.703 15.0762 175.17 15.6306C174.636 16.1721 174.37 16.9586 174.37 17.99V22.999H171.932V12.6716H174.253V14.1801Z" fill="white"/>
<path d="M189.721 17.8933C189.721 18.0609 189.708 18.2995 189.682 18.6089H181.511C181.654 19.3696 182.024 19.9756 182.622 20.4268C183.233 20.8652 183.987 21.0844 184.885 21.0844C186.029 21.0844 186.971 20.7105 187.712 19.9627L189.019 21.4518C188.551 22.0062 187.959 22.4253 187.244 22.7089C186.529 22.9926 185.723 23.1344 184.826 23.1344C183.682 23.1344 182.674 22.9088 181.803 22.4575C180.932 22.0062 180.256 21.3809 179.775 20.5815C179.307 19.7693 179.073 18.8539 179.073 17.8353C179.073 16.8296 179.3 15.9271 179.756 15.1277C180.224 14.3155 180.867 13.6837 181.686 13.2324C182.505 12.7812 183.428 12.5556 184.455 12.5556C185.47 12.5556 186.373 12.7812 187.166 13.2324C187.972 13.6708 188.596 14.2961 189.038 15.1084C189.493 15.9078 189.721 16.8361 189.721 17.8933ZM184.455 14.4895C183.675 14.4895 183.012 14.7216 182.466 15.1858C181.933 15.637 181.608 16.243 181.491 17.0037H187.4C187.296 16.2559 186.978 15.6499 186.445 15.1858C185.912 14.7216 185.249 14.4895 184.455 14.4895Z" fill="white"/>
<path d="M195.28 23.1344C194.435 23.1344 193.61 23.0248 192.804 22.8056C191.998 22.5864 191.354 22.3092 190.873 21.974L191.809 20.1367C192.277 20.4462 192.836 20.6976 193.486 20.891C194.149 21.0715 194.799 21.1617 195.436 21.1617C196.893 21.1617 197.621 20.7814 197.621 20.0207C197.621 19.6597 197.432 19.4083 197.055 19.2664C196.691 19.1246 196.1 18.9892 195.28 18.8603C194.422 18.7314 193.72 18.5831 193.174 18.4155C192.641 18.2479 192.173 17.9578 191.77 17.5452C191.38 17.1197 191.185 16.5331 191.185 15.7853C191.185 14.8054 191.595 14.0254 192.414 13.4452C193.246 12.8521 194.364 12.5556 195.768 12.5556C196.483 12.5556 197.198 12.6394 197.913 12.807C198.628 12.9617 199.213 13.1744 199.668 13.4452L198.732 15.2825C197.848 14.7667 196.854 14.5089 195.748 14.5089C195.033 14.5089 194.487 14.6185 194.11 14.8376C193.746 15.0439 193.564 15.3211 193.564 15.6693C193.564 16.056 193.759 16.3333 194.149 16.5009C194.552 16.6556 195.17 16.8039 196.002 16.9457C196.834 17.0746 197.517 17.2229 198.05 17.3905C198.583 17.5581 199.038 17.8418 199.415 18.2414C199.805 18.6411 200 19.2084 200 19.9433C200 20.9103 199.577 21.6839 198.732 22.2641C197.887 22.8443 196.737 23.1344 195.28 23.1344Z" fill="white"/>
<path d="M86.2549 27.4082H88.7902V38.8186H95.9279V40.946H86.2549V27.4082Z" fill="white"/>
<path d="M107.875 30.6186V40.946H105.555V39.6115C105.152 40.1015 104.651 40.4689 104.053 40.7139C103.468 40.9589 102.818 41.0814 102.103 41.0814C101.089 41.0814 100.179 40.8622 99.3725 40.4238C98.5795 39.9854 97.9554 39.3666 97.5004 38.5672C97.0583 37.7678 96.8373 36.8395 96.8373 35.7823C96.8373 34.725 97.0583 33.8032 97.5004 33.0167C97.9554 32.2173 98.5795 31.5984 99.3725 31.1601C100.179 30.7217 101.089 30.5025 102.103 30.5025C102.779 30.5025 103.396 30.6186 103.955 30.8506C104.528 31.0827 105.022 31.4244 105.438 31.8756V30.6186H107.875ZM102.376 39.012C103.273 39.012 104.014 38.7155 104.599 38.1224C105.184 37.5293 105.477 36.7493 105.477 35.7823C105.477 34.8153 105.184 34.0352 104.599 33.4422C104.014 32.8491 103.273 32.5525 102.376 32.5525C101.479 32.5525 100.738 32.8491 100.153 33.4422C99.5806 34.0352 99.2945 34.8153 99.2945 35.7823C99.2945 36.7493 99.5806 37.5293 100.153 38.1224C100.738 38.7155 101.479 39.012 102.376 39.012Z" fill="white"/>
<path d="M116.837 30.5025C117.852 30.5025 118.755 30.7217 119.548 31.1601C120.354 31.5984 120.985 32.2173 121.44 33.0167C121.895 33.8161 122.122 34.7379 122.122 35.7823C122.122 36.8266 121.895 37.7549 121.44 38.5672C120.985 39.3666 120.354 39.9854 119.548 40.4238C118.755 40.8622 117.852 41.0814 116.837 41.0814C116.122 41.0814 115.466 40.9589 114.868 40.7139C114.283 40.4689 113.789 40.1015 113.386 39.6115V40.946H111.065V26.5959H113.503V31.8756C113.919 31.4244 114.406 31.0827 114.965 30.8506C115.537 30.6186 116.161 30.5025 116.837 30.5025ZM116.564 39.012C117.461 39.012 118.196 38.7155 118.768 38.1224C119.353 37.5293 119.646 36.7493 119.646 35.7823C119.646 34.8153 119.353 34.0352 118.768 33.4422C118.196 32.8491 117.461 32.5525 116.564 32.5525C115.979 32.5525 115.453 32.6879 114.985 32.9587C114.517 33.2165 114.146 33.5904 113.873 34.0804C113.6 34.5703 113.464 35.1376 113.464 35.7823C113.464 36.4269 113.6 36.9942 113.873 37.4842C114.146 37.9741 114.517 38.3545 114.985 38.6252C115.453 38.8831 115.979 39.012 116.564 39.012Z" fill="white"/>
<path d="M72.4326 20.5405C72.4326 31.8848 63.2313 41.0811 51.881 41.0811C40.5307 41.0811 35.1353 41.0811 35.1353 41.0811V0C35.1353 0 48.4783 0 51.881 0C63.2313 0 72.4326 9.19631 72.4326 20.5405Z" fill="#0FBBBB"/>
<path d="M0 41.0811H47.5676L23.7837 0L0 41.0811Z" fill="#5061A0"/>
<path fill-rule="evenodd" clip-rule="evenodd" d="M35.1353 20V41.0811L47.5677 41.0811L35.1353 20Z" fill="#ED534B"/>
</svg>
