<svg width="390" height="118" viewBox="0 0 390 118" fill="none" xmlns="http://www.w3.org/2000/svg">
<path d="M32.1199 59.28C26.1999 59.28 20.8666 58.0533 16.1199 55.6C11.3733 53.0933 7.63992 49.6266 4.91992 45.2C2.25326 40.72 0.919922 35.6533 0.919922 30C0.919922 24.3466 2.25326 19.3066 4.91992 14.88C7.63992 10.4 11.3733 6.9333 16.1199 4.47997C20.8666 1.9733 26.1999 0.719971 32.1199 0.719971C37.5599 0.719971 42.4133 1.67997 46.6799 3.59997C50.9466 5.51997 54.4666 8.2933 57.2399 11.92L45.3199 22.56C41.8533 18.1866 37.7733 16 33.0799 16C29.1333 16 25.9599 17.28 23.5599 19.84C21.1599 22.3466 19.9599 25.7333 19.9599 30C19.9599 34.2666 21.1599 37.68 23.5599 40.24C25.9599 42.7466 29.1333 44 33.0799 44C37.7733 44 41.8533 41.8133 45.3199 37.44L57.2399 48.08C54.4666 51.7066 50.9466 54.48 46.6799 56.4C42.4133 58.32 37.5599 59.28 32.1199 59.28Z" fill="white"/>
<path d="M106.572 36.08C106.572 36.3466 106.492 37.76 106.332 40.32H75.9324C76.5724 41.9733 77.6391 43.2533 79.1324 44.16C80.6258 45.0133 82.4924 45.44 84.7324 45.44C86.6524 45.44 88.2524 45.2 89.5324 44.72C90.8658 44.24 92.3058 43.4133 93.8524 42.24L103.292 51.76C99.0258 56.4533 92.6524 58.8 84.1724 58.8C78.8924 58.8 74.2524 57.84 70.2524 55.92C66.2524 53.9466 63.1591 51.2266 60.9724 47.76C58.7858 44.2933 57.6924 40.4 57.6924 36.08C57.6924 31.7066 58.7591 27.8133 60.8924 24.4C63.0791 20.9333 66.0391 18.24 69.7724 16.32C73.5591 14.4 77.7991 13.44 82.4924 13.44C86.9191 13.44 90.9458 14.32 94.5724 16.08C98.2524 17.84 101.159 20.4266 103.292 23.84C105.479 27.2533 106.572 31.3333 106.572 36.08ZM82.6524 25.76C80.7858 25.76 79.2391 26.2666 78.0124 27.28C76.7858 28.2933 75.9858 29.7333 75.6124 31.6H89.6924C89.3191 29.7866 88.5191 28.3733 87.2924 27.36C86.0658 26.2933 84.5191 25.76 82.6524 25.76Z" fill="white"/>
<path d="M141.878 13.44C147.265 13.44 151.585 15.0666 154.838 18.32C158.145 21.5733 159.798 26.48 159.798 33.04V58H141.718V36.16C141.718 31.1466 139.931 28.64 136.358 28.64C134.331 28.64 132.678 29.36 131.398 30.8C130.171 32.1866 129.558 34.4 129.558 37.44V58H111.478V14.24H128.678V18.56C130.385 16.8533 132.358 15.5733 134.598 14.72C136.838 13.8666 139.265 13.44 141.878 13.44Z" fill="white"/>
<path d="M200.09 56.48C197.37 58.0266 193.663 58.8 188.97 58.8C182.837 58.8 178.117 57.3333 174.81 54.4C171.503 51.4133 169.85 46.96 169.85 41.04V29.84H163.85V16.64H169.85V4.39997H187.93V16.64H196.89V29.84H187.93V40.88C187.93 42.2133 188.277 43.2533 188.97 44C189.663 44.7466 190.57 45.12 191.69 45.12C193.237 45.12 194.597 44.72 195.77 43.92L200.09 56.48Z" fill="white"/>
<path d="M249.235 36.08C249.235 36.3466 249.155 37.76 248.995 40.32H218.595C219.235 41.9733 220.302 43.2533 221.795 44.16C223.288 45.0133 225.155 45.44 227.395 45.44C229.315 45.44 230.915 45.2 232.195 44.72C233.528 44.24 234.968 43.4133 236.515 42.24L245.955 51.76C241.688 56.4533 235.315 58.8 226.835 58.8C221.555 58.8 216.915 57.84 212.915 55.92C208.915 53.9466 205.822 51.2266 203.635 47.76C201.448 44.2933 200.355 40.4 200.355 36.08C200.355 31.7066 201.422 27.8133 203.555 24.4C205.742 20.9333 208.702 18.24 212.435 16.32C216.222 14.4 220.462 13.44 225.155 13.44C229.582 13.44 233.608 14.32 237.235 16.08C240.915 17.84 243.822 20.4266 245.955 23.84C248.142 27.2533 249.235 31.3333 249.235 36.08ZM225.315 25.76C223.448 25.76 221.902 26.2666 220.675 27.28C219.448 28.2933 218.648 29.7333 218.275 31.6H232.355C231.982 29.7866 231.182 28.3733 229.955 27.36C228.728 26.2933 227.182 25.76 225.315 25.76Z" fill="white"/>
<path d="M271.341 18.96C274.541 15.28 279.261 13.44 285.501 13.44V29.44C284.061 29.2266 282.727 29.12 281.501 29.12C275.314 29.12 272.221 32.2666 272.221 38.56V58H254.141V14.24H271.341V18.96Z" fill="white"/>
<path d="M341.293 48.4H333.853V58H315.533V48.4H286.493V36.4L310.253 1.99997H329.613L308.493 33.76H316.093V25.2H333.853V33.76H341.293V48.4Z" fill="white"/>
<path d="M387.926 43.36V58H343.046V46.4L363.286 27.68C365.046 26.0266 366.219 24.6133 366.806 23.44C367.393 22.2666 367.686 21.12 367.686 20C367.686 18.6133 367.206 17.5466 366.246 16.8C365.339 16 364.006 15.6 362.246 15.6C360.539 15.6 358.94 16.0533 357.446 16.96C355.953 17.8666 354.806 19.1466 354.006 20.8L339.766 13.68C341.899 9.67997 345.019 6.5333 349.126 4.23997C353.233 1.8933 358.193 0.719971 364.006 0.719971C368.433 0.719971 372.353 1.43997 375.766 2.87997C379.179 4.31997 381.846 6.3733 383.766 9.03997C385.686 11.7066 386.646 14.7733 386.646 18.24C386.646 21.3333 385.979 24.24 384.646 26.96C383.366 29.6266 380.833 32.6666 377.046 36.08L369.046 43.36H387.926Z" fill="white"/>
<path d="M6.19922 82H10.1992V110H6.19922V82Z" fill="white"/>
<path d="M29.742 88.6C32.4354 88.6 34.5687 89.3866 36.142 90.96C37.742 92.5066 38.542 94.7866 38.542 97.8V110H34.702V98.24C34.702 96.1866 34.2087 94.64 33.222 93.6C32.2354 92.56 30.822 92.04 28.982 92.04C26.902 92.04 25.262 92.6533 24.062 93.88C22.862 95.08 22.262 96.8133 22.262 99.08V110H18.422V88.8H22.102V92C22.8754 90.9066 23.9154 90.0666 25.222 89.48C26.5554 88.8933 28.062 88.6 29.742 88.6Z" fill="white"/>
<path d="M56.3686 88.6C59.0619 88.6 61.1953 89.3866 62.7686 90.96C64.3686 92.5066 65.1686 94.7866 65.1686 97.8V110H61.3286V98.24C61.3286 96.1866 60.8353 94.64 59.8486 93.6C58.8619 92.56 57.4486 92.04 55.6086 92.04C53.5286 92.04 51.8886 92.6533 50.6886 93.88C49.4886 95.08 48.8886 96.8133 48.8886 99.08V110H45.0486V88.8H48.7286V92C49.5019 90.9066 50.5419 90.0666 51.8486 89.48C53.1819 88.8933 54.6886 88.6 56.3686 88.6Z" fill="white"/>
<path d="M81.8723 110.24C79.7657 110.24 77.8723 109.773 76.1923 108.84C74.5123 107.907 73.1923 106.627 72.2323 105C71.299 103.347 70.8323 101.48 70.8323 99.4C70.8323 97.32 71.299 95.4666 72.2323 93.84C73.1923 92.1866 74.5123 90.9066 76.1923 90C77.8723 89.0666 79.7657 88.6 81.8723 88.6C83.979 88.6 85.859 89.0666 87.5123 90C89.1923 90.9066 90.499 92.1866 91.4323 93.84C92.3923 95.4666 92.8723 97.32 92.8723 99.4C92.8723 101.48 92.3923 103.347 91.4323 105C90.499 106.627 89.1923 107.907 87.5123 108.84C85.859 109.773 83.979 110.24 81.8723 110.24ZM81.8723 106.88C83.2323 106.88 84.4457 106.573 85.5123 105.96C86.6057 105.32 87.459 104.44 88.0723 103.32C88.6857 102.173 88.9923 100.867 88.9923 99.4C88.9923 97.9333 88.6857 96.64 88.0723 95.52C87.459 94.3733 86.6057 93.4933 85.5123 92.88C84.4457 92.2666 83.2323 91.96 81.8723 91.96C80.5123 91.96 79.2857 92.2666 78.1923 92.88C77.1257 93.4933 76.2723 94.3733 75.6323 95.52C75.019 96.64 74.7123 97.9333 74.7123 99.4C74.7123 100.867 75.019 102.173 75.6323 103.32C76.2723 104.44 77.1257 105.32 78.1923 105.96C79.2857 106.573 80.5123 106.88 81.8723 106.88Z" fill="white"/>
<path d="M116.757 88.8L107.477 110H103.557L94.277 88.8H98.277L105.557 105.8L112.997 88.8H116.757Z" fill="white"/>
<path d="M127.797 88.6C130.73 88.6 132.97 89.32 134.517 90.76C136.09 92.2 136.877 94.3466 136.877 97.2V110H133.237V107.2C132.597 108.187 131.677 108.947 130.477 109.48C129.303 109.987 127.903 110.24 126.277 110.24C123.903 110.24 121.997 109.667 120.557 108.52C119.143 107.373 118.437 105.867 118.437 104C118.437 102.133 119.117 100.64 120.477 99.52C121.837 98.3733 123.997 97.8 126.957 97.8H133.037V97.04C133.037 95.3866 132.557 94.12 131.597 93.24C130.637 92.36 129.223 91.92 127.357 91.92C126.103 91.92 124.877 92.1333 123.677 92.56C122.477 92.96 121.463 93.5066 120.637 94.2L119.037 91.32C120.13 90.44 121.437 89.7733 122.957 89.32C124.477 88.84 126.09 88.6 127.797 88.6ZM126.917 107.28C128.383 107.28 129.65 106.96 130.717 106.32C131.783 105.653 132.557 104.72 133.037 103.52V100.56H127.117C123.863 100.56 122.237 101.653 122.237 103.84C122.237 104.907 122.65 105.747 123.477 106.36C124.303 106.973 125.45 107.28 126.917 107.28Z" fill="white"/>
<path d="M156.303 108.76C155.743 109.24 155.05 109.613 154.223 109.88C153.396 110.12 152.543 110.24 151.663 110.24C149.53 110.24 147.876 109.667 146.703 108.52C145.53 107.373 144.943 105.733 144.943 103.6V91.96H141.343V88.8H144.943V84.16H148.783V88.8H154.863V91.96H148.783V103.44C148.783 104.587 149.063 105.467 149.623 106.08C150.21 106.693 151.036 107 152.103 107C153.276 107 154.276 106.667 155.103 106L156.303 108.76Z" fill="white"/>
<path d="M161.345 88.8H165.185V110H161.345V88.8ZM163.265 85.72C162.519 85.72 161.892 85.48 161.385 85C160.905 84.52 160.665 83.9333 160.665 83.24C160.665 82.5466 160.905 81.96 161.385 81.48C161.892 80.9733 162.519 80.72 163.265 80.72C164.012 80.72 164.625 80.96 165.105 81.44C165.612 81.8933 165.865 82.4666 165.865 83.16C165.865 83.88 165.612 84.4933 165.105 85C164.625 85.48 164.012 85.72 163.265 85.72Z" fill="white"/>
<path d="M181.997 110.24C179.891 110.24 177.997 109.773 176.317 108.84C174.637 107.907 173.317 106.627 172.357 105C171.424 103.347 170.957 101.48 170.957 99.4C170.957 97.32 171.424 95.4666 172.357 93.84C173.317 92.1866 174.637 90.9066 176.317 90C177.997 89.0666 179.891 88.6 181.997 88.6C184.104 88.6 185.984 89.0666 187.637 90C189.317 90.9066 190.624 92.1866 191.557 93.84C192.517 95.4666 192.997 97.32 192.997 99.4C192.997 101.48 192.517 103.347 191.557 105C190.624 106.627 189.317 107.907 187.637 108.84C185.984 109.773 184.104 110.24 181.997 110.24ZM181.997 106.88C183.357 106.88 184.571 106.573 185.637 105.96C186.731 105.32 187.584 104.44 188.197 103.32C188.811 102.173 189.117 100.867 189.117 99.4C189.117 97.9333 188.811 96.64 188.197 95.52C187.584 94.3733 186.731 93.4933 185.637 92.88C184.571 92.2666 183.357 91.96 181.997 91.96C180.637 91.96 179.411 92.2666 178.317 92.88C177.251 93.4933 176.397 94.3733 175.757 95.52C175.144 96.64 174.837 97.9333 174.837 99.4C174.837 100.867 175.144 102.173 175.757 103.32C176.397 104.44 177.251 105.32 178.317 105.96C179.411 106.573 180.637 106.88 181.997 106.88Z" fill="white"/>
<path d="M210.028 88.6C212.721 88.6 214.855 89.3866 216.428 90.96C218.028 92.5066 218.828 94.7866 218.828 97.8V110H214.988V98.24C214.988 96.1866 214.495 94.64 213.508 93.6C212.521 92.56 211.108 92.04 209.268 92.04C207.188 92.04 205.548 92.6533 204.348 93.88C203.148 95.08 202.548 96.8133 202.548 99.08V110H198.708V88.8H202.388V92C203.161 90.9066 204.201 90.0666 205.508 89.48C206.841 88.8933 208.348 88.6 210.028 88.6Z" fill="white"/>
<path d="M256.877 103H241.997L238.917 110H234.797L247.477 82H251.437L264.157 110H259.957L256.877 103ZM255.477 99.8L249.437 86.08L243.397 99.8H255.477Z" fill="white"/>
<path d="M287.258 88.8V107.12C287.258 110.827 286.338 113.56 284.498 115.32C282.658 117.107 279.912 118 276.258 118C274.258 118 272.352 117.72 270.538 117.16C268.725 116.627 267.258 115.853 266.138 114.84L267.978 111.88C268.965 112.733 270.178 113.4 271.618 113.88C273.085 114.387 274.592 114.64 276.138 114.64C278.618 114.64 280.445 114.053 281.618 112.88C282.818 111.707 283.418 109.92 283.418 107.52V105.84C282.512 106.933 281.392 107.76 280.058 108.32C278.752 108.853 277.325 109.12 275.778 109.12C273.752 109.12 271.912 108.693 270.258 107.84C268.632 106.96 267.352 105.747 266.418 104.2C265.485 102.627 265.018 100.84 265.018 98.84C265.018 96.84 265.485 95.0666 266.418 93.52C267.352 91.9466 268.632 90.7333 270.258 89.88C271.912 89.0266 273.752 88.6 275.778 88.6C277.378 88.6 278.858 88.8933 280.218 89.48C281.605 90.0666 282.738 90.9333 283.618 92.08V88.8H287.258ZM276.218 105.76C277.605 105.76 278.845 105.467 279.938 104.88C281.058 104.293 281.925 103.48 282.538 102.44C283.178 101.373 283.498 100.173 283.498 98.84C283.498 96.7866 282.818 95.1333 281.458 93.88C280.098 92.6 278.352 91.96 276.218 91.96C274.058 91.96 272.298 92.6 270.938 93.88C269.578 95.1333 268.898 96.7866 268.898 98.84C268.898 100.173 269.205 101.373 269.818 102.44C270.458 103.48 271.325 104.293 272.418 104.88C273.538 105.467 274.805 105.76 276.218 105.76Z" fill="white"/>
<path d="M314.155 99.52C314.155 99.8133 314.129 100.2 314.075 100.68H296.875C297.115 102.547 297.929 104.053 299.315 105.2C300.729 106.32 302.475 106.88 304.555 106.88C307.089 106.88 309.129 106.027 310.675 104.32L312.795 106.8C311.835 107.92 310.635 108.773 309.195 109.36C307.782 109.947 306.195 110.24 304.435 110.24C302.195 110.24 300.209 109.787 298.475 108.88C296.742 107.947 295.395 106.653 294.435 105C293.502 103.347 293.035 101.48 293.035 99.4C293.035 97.3466 293.489 95.4933 294.395 93.84C295.329 92.1866 296.595 90.9066 298.195 90C299.822 89.0666 301.649 88.6 303.675 88.6C305.702 88.6 307.502 89.0666 309.075 90C310.675 90.9066 311.915 92.1866 312.795 93.84C313.702 95.4933 314.155 97.3866 314.155 99.52ZM303.675 91.84C301.835 91.84 300.289 92.4 299.035 93.52C297.809 94.64 297.089 96.1066 296.875 97.92H310.475C310.262 96.1333 309.529 94.68 308.275 93.56C307.049 92.4133 305.515 91.84 303.675 91.84Z" fill="white"/>
<path d="M330.208 88.6C332.901 88.6 335.034 89.3866 336.608 90.96C338.208 92.5066 339.008 94.7866 339.008 97.8V110H335.168V98.24C335.168 96.1866 334.674 94.64 333.688 93.6C332.701 92.56 331.288 92.04 329.448 92.04C327.368 92.04 325.728 92.6533 324.528 93.88C323.328 95.08 322.728 96.8133 322.728 99.08V110H318.888V88.8H322.568V92C323.341 90.9066 324.381 90.0666 325.688 89.48C327.021 88.8933 328.528 88.6 330.208 88.6Z" fill="white"/>
<path d="M355.871 110.24C353.711 110.24 351.778 109.773 350.071 108.84C348.391 107.907 347.071 106.627 346.111 105C345.151 103.347 344.671 101.48 344.671 99.4C344.671 97.32 345.151 95.4666 346.111 93.84C347.071 92.1866 348.391 90.9066 350.071 90C351.778 89.0666 353.711 88.6 355.871 88.6C357.791 88.6 359.498 88.9866 360.991 89.76C362.511 90.5333 363.685 91.6533 364.511 93.12L361.591 95C360.925 93.9866 360.098 93.2266 359.111 92.72C358.125 92.2133 357.031 91.96 355.831 91.96C354.445 91.96 353.191 92.2666 352.071 92.88C350.978 93.4933 350.111 94.3733 349.471 95.52C348.858 96.64 348.551 97.9333 348.551 99.4C348.551 100.893 348.858 102.213 349.471 103.36C350.111 104.48 350.978 105.347 352.071 105.96C353.191 106.573 354.445 106.88 355.831 106.88C357.031 106.88 358.125 106.627 359.111 106.12C360.098 105.613 360.925 104.853 361.591 103.84L364.511 105.68C363.685 107.147 362.511 108.28 360.991 109.08C359.498 109.853 357.791 110.24 355.871 110.24Z" fill="white"/>
<path d="M389.37 88.8L379.09 112.12C378.183 114.28 377.116 115.8 375.89 116.68C374.69 117.56 373.236 118 371.53 118C370.49 118 369.476 117.827 368.49 117.48C367.53 117.16 366.73 116.68 366.09 116.04L367.73 113.16C368.823 114.2 370.09 114.72 371.53 114.72C372.463 114.72 373.236 114.467 373.85 113.96C374.49 113.48 375.063 112.64 375.57 111.44L376.25 109.96L366.89 88.8H370.89L378.29 105.76L385.61 88.8H389.37Z" fill="white"/>
</svg>
