<svg width="98" height="101" viewBox="0 0 98 101" fill="none" xmlns="http://www.w3.org/2000/svg">
<path d="M1 41.1116V99.7783M1 41.1116L34.9429 65.8354M1 41.1116L10.4545 33.4079M1 99.7783H49H97M1 99.7783L34.9429 65.8354M34.9429 65.8354L49 76.0746L63.0571 65.8354M97 41.1116V99.7783M97 41.1116L63.0571 65.8354M97 41.1116L87.5455 33.4079M97 99.7783L63.0571 65.8354M41.2963 8.27758L49 2.00049L56.7037 8.27758" stroke="#FF006B" stroke-width="2"/>
<path d="M15.2222 45.2598V13.2598H83.9629V45.2598" stroke="white" stroke-width="2"/>
<path d="M49.5925 23.9265L53.9576 33.3259L64.2458 34.5728L56.6554 41.6288L58.6487 51.7988L49.5925 46.7603L40.5362 51.7988L42.5296 41.6288L34.9392 34.5728L45.2274 33.3259L49.5925 23.9265Z" stroke="white" stroke-width="2"/>
</svg>
