<svg width="85" height="103" viewBox="0 0 85 103" fill="none" xmlns="http://www.w3.org/2000/svg">
<ellipse cx="42.5" cy="43.0005" rx="25.5" ry="26" stroke="white" stroke-width="2"/>
<circle cx="42.5" cy="43.5005" r="18.5" stroke="#FF006B" stroke-width="2"/>
<path d="M52.7905 76.2495L67.5304 79.0296L69.441 64.1532L83 57.7393L75.8009 44.5811L83 31.423L69.441 25.009L67.5304 10.1327L52.7905 12.9128L42.5 2.00049L32.2095 12.9128L17.4696 10.1327L15.559 25.009L2 31.423L9.19914 44.5811L2 57.7393L15.559 64.1532L17.4696 79.0296L22.4983 78.0811M52.7905 76.2495L42.5 87.1618L32.2095 76.2495M52.7905 76.2495V102M32.2095 76.2495L22.4983 78.0811M32.2095 76.2495V102M22.4983 78.0811V102H32.2095M32.2095 102L42.5 91.7108L52.7905 102M62.5017 78.0811V102H52.7905" stroke="#FF006B" stroke-width="2"/>
<path d="M42.5 34.0005L45.4707 39.1269L51.535 40.2193L47.3066 44.4801L48.084 50.2816L42.5 47.7885L36.916 50.2816L37.6934 44.4801L33.465 40.2193L39.5293 39.1269L42.5 34.0005Z" stroke="white" stroke-width="2"/>
</svg>
