<svg width="102" height="100" viewBox="0 0 102 100" fill="none" xmlns="http://www.w3.org/2000/svg">
<path d="M29.702 27.6917H21C9.9543 27.6917 1 36.646 1 47.6916V66.0829H9.77514M9.77514 66.0829V41.7684M9.77514 66.0829V98.2584H20.5612M26.2285 98.2584H20.5612M20.5612 98.2584V72.847" stroke="#FF006B" stroke-width="2"/>
<path d="M72.298 27.6917H81C92.0457 27.6917 101 36.646 101 47.6916V66.0829H92.2249M92.2249 66.0829V41.7684M92.2249 66.0829V98.2584H81.4388M75.7715 98.2584H81.4388M81.4388 98.2584V72.847" stroke="#FF006B" stroke-width="2"/>
<path d="M60.9632 45.2419V66.0829M60.9632 66.0829V98.624H50.9084M60.9632 66.0829H69.3727V41.841C69.3727 34.0265 63.0379 27.6917 55.2234 27.6917V27.6917C55.0357 27.6917 54.8558 27.7662 54.7231 27.8989L50.9084 31.7136L47.098 27.9032C46.9625 27.7677 46.7788 27.6917 46.5873 27.6917V27.6917C39.9024 27.6917 34.0908 32.2788 32.5381 38.7809L26.4111 64.4375L35.1863 66.6313L40.8535 45.2419V98.624H50.9084M50.9084 98.624V72.2986" stroke="white" stroke-width="2"/>
<path d="M26 89.6477V71.0005H34.0439V89.6477H26Z" stroke="white" stroke-width="2"/>
<path d="M48.1665 50.7264L50.9087 35.3699L53.651 50.7264L50.9087 53.4686L48.1665 50.7264Z" stroke="#FF006B" stroke-width="2"/>
<circle cx="50.3602" cy="11.2381" r="10.2377" stroke="white" stroke-width="2"/>
<circle cx="18.9159" cy="11.2381" r="10.2377" stroke="#FF006B" stroke-width="2"/>
<circle r="10.2377" transform="matrix(-1 0 0 1 83.0841 11.2381)" stroke="#FF006B" stroke-width="2"/>
</svg>
